<?xml version="1.0" encoding="UTF-8" standalone="no"?><svg xmlns="http://www.w3.org/2000/svg" xmlns:xlink="http://www.w3.org/1999/xlink" contentStyleType="text/css" height="1378px" preserveAspectRatio="none" style="width:1417px;height:1378px;background:#FFFFFF;" version="1.1" viewBox="0 0 1417 1378" width="1417px" zoomAndPan="magnify"><defs/><g><rect fill="none" height="26.2969" id="_title" style="stroke:none;stroke-width:1.0;" width="434" x="487.75" y="10"/><text fill="#000000" font-family="sans-serif" font-size="14" font-weight="bold" lengthAdjust="spacing" textLength="424" x="492.75" y="27.9951">Search and Schedule Generation - Sequence Diagram</text><rect fill="none" height="378.3984" style="stroke:#000000;stroke-width:1.5;" width="1060" x="235.5" y="353.5234"/><line style="stroke:#181818;stroke-width:0.5;stroke-dasharray:5.0,5.0;" x1="24" x2="24" y1="118.5938" y2="1298.1797"/><line style="stroke:#181818;stroke-width:0.5;stroke-dasharray:5.0,5.0;" x1="265.5" x2="265.5" y1="118.5938" y2="1298.1797"/><line style="stroke:#181818;stroke-width:0.5;stroke-dasharray:5.0,5.0;" x1="499.5" x2="499.5" y1="118.5938" y2="1298.1797"/><line style="stroke:#181818;stroke-width:0.5;stroke-dasharray:5.0,5.0;" x1="692" x2="692" y1="118.5938" y2="1298.1797"/><line style="stroke:#181818;stroke-width:0.5;stroke-dasharray:5.0,5.0;" x1="844.5" x2="844.5" y1="118.5938" y2="1298.1797"/><line style="stroke:#181818;stroke-width:0.5;stroke-dasharray:5.0,5.0;" x1="933.5" x2="933.5" y1="118.5938" y2="1298.1797"/><line style="stroke:#181818;stroke-width:0.5;stroke-dasharray:5.0,5.0;" x1="1094" x2="1094" y1="118.5938" y2="1298.1797"/><line style="stroke:#181818;stroke-width:0.5;stroke-dasharray:5.0,5.0;" x1="1247.5" x2="1247.5" y1="118.5938" y2="1298.1797"/><line style="stroke:#181818;stroke-width:0.5;stroke-dasharray:5.0,5.0;" x1="1350.5" x2="1350.5" y1="118.5938" y2="1298.1797"/><text fill="#000000" font-family="sans-serif" font-size="14" lengthAdjust="spacing" textLength="32" x="5" y="115.292">User</text><ellipse cx="24" cy="50.7969" fill="#E2E2F0" rx="8" ry="8" style="stroke:#181818;stroke-width:0.5;"/><path d="M24,58.7969 L24,85.7969 M11,66.7969 L37,66.7969 M24,85.7969 L11,100.7969 M24,85.7969 L37,100.7969 " fill="none" style="stroke:#181818;stroke-width:0.5;"/><text fill="#000000" font-family="sans-serif" font-size="14" lengthAdjust="spacing" textLength="32" x="5" y="1310.1748">User</text><ellipse cx="24" cy="1321.9766" fill="#E2E2F0" rx="8" ry="8" style="stroke:#181818;stroke-width:0.5;"/><path d="M24,1329.9766 L24,1356.9766 M11,1337.9766 L37,1337.9766 M24,1356.9766 L11,1371.9766 M24,1356.9766 L37,1371.9766 " fill="none" style="stroke:#181818;stroke-width:0.5;"/><rect fill="#E2E2F0" height="30.2969" rx="2.5" ry="2.5" style="stroke:#181818;stroke-width:0.5;" width="41" x="245.5" y="87.2969"/><text fill="#000000" font-family="sans-serif" font-size="14" lengthAdjust="spacing" textLength="27" x="252.5" y="107.292">App</text><rect fill="#E2E2F0" height="30.2969" rx="2.5" ry="2.5" style="stroke:#181818;stroke-width:0.5;" width="41" x="245.5" y="1297.1797"/><text fill="#000000" font-family="sans-serif" font-size="14" lengthAdjust="spacing" textLength="27" x="252.5" y="1317.1748">App</text><rect fill="#E2E2F0" height="30.2969" rx="2.5" ry="2.5" style="stroke:#181818;stroke-width:0.5;" width="133" x="433.5" y="87.2969"/><text fill="#000000" font-family="sans-serif" font-size="14" lengthAdjust="spacing" textLength="119" x="440.5" y="107.292">frontendInterface</text><rect fill="#E2E2F0" height="30.2969" rx="2.5" ry="2.5" style="stroke:#181818;stroke-width:0.5;" width="133" x="433.5" y="1297.1797"/><text fill="#000000" font-family="sans-serif" font-size="14" lengthAdjust="spacing" textLength="119" x="440.5" y="1317.1748">frontendInterface</text><rect fill="#E2E2F0" height="30.2969" rx="2.5" ry="2.5" style="stroke:#181818;stroke-width:0.5;" width="86" x="649" y="87.2969"/><text fill="#000000" font-family="sans-serif" font-size="14" lengthAdjust="spacing" textLength="72" x="656" y="107.292">dbQueries</text><rect fill="#E2E2F0" height="30.2969" rx="2.5" ry="2.5" style="stroke:#181818;stroke-width:0.5;" width="86" x="649" y="1297.1797"/><text fill="#000000" font-family="sans-serif" font-size="14" lengthAdjust="spacing" textLength="72" x="656" y="1317.1748">dbQueries</text><text fill="#000000" font-family="sans-serif" font-size="14" lengthAdjust="spacing" textLength="93" x="795.5" y="115.292">SQLite (sql.js)</text><path d="M827,66.2969 C827,56.2969 845,56.2969 845,56.2969 C845,56.2969 863,56.2969 863,66.2969 L863,92.2969 C863,102.2969 845,102.2969 845,102.2969 C845,102.2969 827,102.2969 827,92.2969 L827,66.2969 " fill="#E2E2F0" style="stroke:#181818;stroke-width:1.5;"/><path d="M827,66.2969 C827,76.2969 845,76.2969 845,76.2969 C845,76.2969 863,76.2969 863,66.2969 " fill="none" style="stroke:#181818;stroke-width:1.5;"/><text fill="#000000" font-family="sans-serif" font-size="14" lengthAdjust="spacing" textLength="93" x="795.5" y="1310.1748">SQLite (sql.js)</text><path d="M827,1323.4766 C827,1313.4766 845,1313.4766 845,1313.4766 C845,1313.4766 863,1313.4766 863,1323.4766 L863,1349.4766 C863,1359.4766 845,1359.4766 845,1359.4766 C845,1359.4766 827,1359.4766 827,1349.4766 L827,1323.4766 " fill="#E2E2F0" style="stroke:#181818;stroke-width:1.5;"/><path d="M827,1323.4766 C827,1333.4766 845,1333.4766 845,1333.4766 C845,1333.4766 863,1333.4766 863,1323.4766 " fill="none" style="stroke:#181818;stroke-width:1.5;"/><rect fill="#E2E2F0" height="30.2969" rx="2.5" ry="2.5" style="stroke:#181818;stroke-width:0.5;" width="58" x="904.5" y="87.2969"/><text fill="#000000" font-family="sans-serif" font-size="14" lengthAdjust="spacing" textLength="44" x="911.5" y="107.292">Server</text><rect fill="#E2E2F0" height="30.2969" rx="2.5" ry="2.5" style="stroke:#181818;stroke-width:0.5;" width="58" x="904.5" y="1297.1797"/><text fill="#000000" font-family="sans-serif" font-size="14" lengthAdjust="spacing" textLength="44" x="911.5" y="1317.1748">Server</text><rect fill="#E2E2F0" height="30.2969" rx="2.5" ry="2.5" style="stroke:#181818;stroke-width:0.5;" width="115" x="1037" y="87.2969"/><text fill="#000000" font-family="sans-serif" font-size="14" lengthAdjust="spacing" textLength="101" x="1044" y="107.292">RegistrarClient</text><rect fill="#E2E2F0" height="30.2969" rx="2.5" ry="2.5" style="stroke:#181818;stroke-width:0.5;" width="115" x="1037" y="1297.1797"/><text fill="#000000" font-family="sans-serif" font-size="14" lengthAdjust="spacing" textLength="101" x="1044" y="1317.1748">RegistrarClient</text><rect fill="#E2E2F0" height="30.2969" rx="2.5" ry="2.5" style="stroke:#181818;stroke-width:0.5;" width="76" x="1209.5" y="87.2969"/><text fill="#000000" font-family="sans-serif" font-size="14" lengthAdjust="spacing" textLength="62" x="1216.5" y="107.292">Registrar</text><rect fill="#E2E2F0" height="30.2969" rx="2.5" ry="2.5" style="stroke:#181818;stroke-width:0.5;" width="76" x="1209.5" y="1297.1797"/><text fill="#000000" font-family="sans-serif" font-size="14" lengthAdjust="spacing" textLength="62" x="1216.5" y="1317.1748">Registrar</text><rect fill="#E2E2F0" height="30.2969" rx="2.5" ry="2.5" style="stroke:#181818;stroke-width:0.5;" width="110" x="1295.5" y="87.2969"/><text fill="#000000" font-family="sans-serif" font-size="14" lengthAdjust="spacing" textLength="96" x="1302.5" y="107.292">getSchedules</text><rect fill="#E2E2F0" height="30.2969" rx="2.5" ry="2.5" style="stroke:#181818;stroke-width:0.5;" width="110" x="1295.5" y="1297.1797"/><text fill="#000000" font-family="sans-serif" font-size="14" lengthAdjust="spacing" textLength="96" x="1302.5" y="1317.1748">getSchedules</text><rect fill="#EEEEEE" height="3" style="stroke:#EEEEEE;stroke-width:1.0;" width="1410.5" x="0" y="149.1602"/><line style="stroke:#000000;stroke-width:1.0;" x1="0" x2="1410.5" y1="149.1602" y2="149.1602"/><line style="stroke:#000000;stroke-width:1.0;" x1="0" x2="1410.5" y1="152.1602" y2="152.1602"/><rect fill="#EEEEEE" height="23.1328" style="stroke:#000000;stroke-width:2.0;" width="128" x="641.25" y="138.5938"/><text fill="#000000" font-family="sans-serif" font-size="13" font-weight="bold" lengthAdjust="spacing" textLength="109" x="647.25" y="154.6606">Subject search</text><polygon fill="#181818" points="254,188.8594,264,192.8594,254,196.8594,258,192.8594" style="stroke:#181818;stroke-width:1.0;"/><line style="stroke:#181818;stroke-width:1.0;" x1="24" x2="260" y1="192.8594" y2="192.8594"/><text fill="#000000" font-family="sans-serif" font-size="13" lengthAdjust="spacing" textLength="186" x="31" y="187.7935">type subject and click Search</text><polygon fill="#181818" points="488,217.9922,498,221.9922,488,225.9922,492,221.9922" style="stroke:#181818;stroke-width:1.0;"/><line style="stroke:#181818;stroke-width:1.0;" x1="266" x2="494" y1="221.9922" y2="221.9922"/><text fill="#000000" font-family="sans-serif" font-size="13" lengthAdjust="spacing" textLength="145" x="273" y="216.9263">searchSubjects(MATH)</text><polygon fill="#181818" points="680,247.125,690,251.125,680,255.125,684,251.125" style="stroke:#181818;stroke-width:1.0;"/><line style="stroke:#181818;stroke-width:1.0;" x1="500" x2="686" y1="251.125" y2="251.125"/><text fill="#000000" font-family="sans-serif" font-size="13" lengthAdjust="spacing" textLength="168" x="507" y="246.0591">searchSubjectArea(MATH)</text><polygon fill="#181818" points="833,276.2578,843,280.2578,833,284.2578,837,280.2578" style="stroke:#181818;stroke-width:1.0;"/><line style="stroke:#181818;stroke-width:1.0;" x1="692" x2="839" y1="280.2578" y2="280.2578"/><text fill="#000000" font-family="sans-serif" font-size="13" lengthAdjust="spacing" textLength="129" x="699" y="275.1919">SELECT subjectData</text><polygon fill="#181818" points="703,305.3906,693,309.3906,703,313.3906,699,309.3906" style="stroke:#181818;stroke-width:1.0;"/><line style="stroke:#181818;stroke-width:1.0;stroke-dasharray:2.0,2.0;" x1="697" x2="844" y1="309.3906" y2="309.3906"/><text fill="#000000" font-family="sans-serif" font-size="13" lengthAdjust="spacing" textLength="79" x="709" y="304.3247">subject rows</text><polygon fill="#181818" points="511,334.5234,501,338.5234,511,342.5234,507,338.5234" style="stroke:#181818;stroke-width:1.0;"/><line style="stroke:#181818;stroke-width:1.0;stroke-dasharray:2.0,2.0;" x1="505" x2="691" y1="338.5234" y2="338.5234"/><text fill="#000000" font-family="sans-serif" font-size="13" lengthAdjust="spacing" textLength="103" x="517" y="333.4575">cached subjects</text><path d="M235.5,353.5234 L299.5,353.5234 L299.5,360.6563 L289.5,370.6563 L235.5,370.6563 L235.5,353.5234 " fill="#EEEEEE" style="stroke:#000000;stroke-width:1.5;"/><rect fill="none" height="378.3984" style="stroke:#000000;stroke-width:1.5;" width="1060" x="235.5" y="353.5234"/><text fill="#000000" font-family="sans-serif" font-size="13" font-weight="bold" lengthAdjust="spacing" textLength="19" x="250.5" y="366.5903">alt</text><text fill="#000000" font-family="sans-serif" font-size="11" font-weight="bold" lengthAdjust="spacing" textLength="156" x="314.5" y="365.7339">[subject found in cache]</text><polygon fill="#181818" points="277,387.7891,267,391.7891,277,395.7891,273,391.7891" style="stroke:#181818;stroke-width:1.0;"/><line style="stroke:#181818;stroke-width:1.0;stroke-dasharray:2.0,2.0;" x1="271" x2="499" y1="391.7891" y2="391.7891"/><text fill="#000000" font-family="sans-serif" font-size="13" lengthAdjust="spacing" textLength="68" x="283" y="386.7231">subject list</text><line style="stroke:#181818;stroke-width:1.0;" x1="266" x2="308" y1="420.9219" y2="420.9219"/><line style="stroke:#181818;stroke-width:1.0;" x1="308" x2="308" y1="420.9219" y2="433.9219"/><line style="stroke:#181818;stroke-width:1.0;" x1="267" x2="308" y1="433.9219" y2="433.9219"/><polygon fill="#181818" points="277,429.9219,267,433.9219,277,437.9219,273,433.9219" style="stroke:#181818;stroke-width:1.0;"/><text fill="#000000" font-family="sans-serif" font-size="13" lengthAdjust="spacing" textLength="216" x="273" y="415.856">store in state and render subjects</text><line style="stroke:#000000;stroke-width:1.0;stroke-dasharray:2.0,2.0;" x1="235.5" x2="1295.5" y1="442.9219" y2="442.9219"/><text fill="#000000" font-family="sans-serif" font-size="11" font-weight="bold" lengthAdjust="spacing" textLength="135" x="240.5" y="453.1323">[no subject in cache]</text><polygon fill="#181818" points="921.5,473.8594,931.5,477.8594,921.5,481.8594,925.5,477.8594" style="stroke:#181818;stroke-width:1.0;"/><line style="stroke:#181818;stroke-width:1.0;" x1="500" x2="927.5" y1="477.8594" y2="477.8594"/><text fill="#000000" font-family="sans-serif" font-size="13" lengthAdjust="spacing" textLength="115" x="507" y="472.7935">GET /api/subjectID</text><polygon fill="#181818" points="1082.5,502.9922,1092.5,506.9922,1082.5,510.9922,1086.5,506.9922" style="stroke:#181818;stroke-width:1.0;"/><line style="stroke:#181818;stroke-width:1.0;" x1="933.5" x2="1088.5" y1="506.9922" y2="506.9922"/><text fill="#000000" font-family="sans-serif" font-size="13" lengthAdjust="spacing" textLength="129" x="940.5" y="501.9263">getSubjectID(MATH)</text><polygon fill="#181818" points="1235.5,532.125,1245.5,536.125,1235.5,540.125,1239.5,536.125" style="stroke:#181818;stroke-width:1.0;"/><line style="stroke:#181818;stroke-width:1.0;" x1="1094.5" x2="1241.5" y1="536.125" y2="536.125"/><text fill="#000000" font-family="sans-serif" font-size="13" lengthAdjust="spacing" textLength="129" x="1101.5" y="531.0591">HTTP subject search</text><polygon fill="#181818" points="1105.5,561.2578,1095.5,565.2578,1105.5,569.2578,1101.5,565.2578" style="stroke:#181818;stroke-width:1.0;"/><line style="stroke:#181818;stroke-width:1.0;stroke-dasharray:2.0,2.0;" x1="1099.5" x2="1246.5" y1="565.2578" y2="565.2578"/><text fill="#000000" font-family="sans-serif" font-size="13" lengthAdjust="spacing" textLength="85" x="1111.5" y="560.1919">raw response</text><polygon fill="#181818" points="944.5,590.3906,934.5,594.3906,944.5,598.3906,940.5,594.3906" style="stroke:#181818;stroke-width:1.0;"/><line style="stroke:#181818;stroke-width:1.0;stroke-dasharray:2.0,2.0;" x1="938.5" x2="1093.5" y1="594.3906" y2="594.3906"/><text fill="#000000" font-family="sans-serif" font-size="13" lengthAdjust="spacing" textLength="116" x="950.5" y="589.3247">parsed subject list</text><polygon fill="#181818" points="511,619.5234,501,623.5234,511,627.5234,507,623.5234" style="stroke:#181818;stroke-width:1.0;"/><line style="stroke:#181818;stroke-width:1.0;stroke-dasharray:2.0,2.0;" x1="505" x2="932.5" y1="623.5234" y2="623.5234"/><text fill="#000000" font-family="sans-serif" font-size="13" lengthAdjust="spacing" textLength="104" x="517" y="618.4575">JSON subject list</text><polygon fill="#181818" points="680,648.6563,690,652.6563,680,656.6563,684,652.6563" style="stroke:#181818;stroke-width:1.0;"/><line style="stroke:#181818;stroke-width:1.0;" x1="500" x2="686" y1="652.6563" y2="652.6563"/><text fill="#000000" font-family="sans-serif" font-size="13" lengthAdjust="spacing" textLength="144" x="507" y="647.5903">createSubjectEntry(...)</text><polygon fill="#181818" points="277,677.7891,267,681.7891,277,685.7891,273,681.7891" style="stroke:#181818;stroke-width:1.0;"/><line style="stroke:#181818;stroke-width:1.0;stroke-dasharray:2.0,2.0;" x1="271" x2="499" y1="681.7891" y2="681.7891"/><text fill="#000000" font-family="sans-serif" font-size="13" lengthAdjust="spacing" textLength="68" x="283" y="676.7231">subject list</text><line style="stroke:#181818;stroke-width:1.0;" x1="266" x2="308" y1="710.9219" y2="710.9219"/><line style="stroke:#181818;stroke-width:1.0;" x1="308" x2="308" y1="710.9219" y2="723.9219"/><line style="stroke:#181818;stroke-width:1.0;" x1="267" x2="308" y1="723.9219" y2="723.9219"/><polygon fill="#181818" points="277,719.9219,267,723.9219,277,727.9219,273,723.9219" style="stroke:#181818;stroke-width:1.0;"/><text fill="#000000" font-family="sans-serif" font-size="13" lengthAdjust="spacing" textLength="216" x="273" y="705.856">store in state and render subjects</text><rect fill="#EEEEEE" height="3" style="stroke:#EEEEEE;stroke-width:1.0;" width="1410.5" x="0" y="759.4883"/><line style="stroke:#000000;stroke-width:1.0;" x1="0" x2="1410.5" y1="759.4883" y2="759.4883"/><line style="stroke:#000000;stroke-width:1.0;" x1="0" x2="1410.5" y1="762.4883" y2="762.4883"/><rect fill="#EEEEEE" height="23.1328" style="stroke:#000000;stroke-width:2.0;" width="118" x="646.25" y="748.9219"/><text fill="#000000" font-family="sans-serif" font-size="13" font-weight="bold" lengthAdjust="spacing" textLength="99" x="652.25" y="764.9888">Class loading</text><polygon fill="#181818" points="254,799.1875,264,803.1875,254,807.1875,258,803.1875" style="stroke:#181818;stroke-width:1.0;"/><line style="stroke:#181818;stroke-width:1.0;" x1="24" x2="260" y1="803.1875" y2="803.1875"/><text fill="#000000" font-family="sans-serif" font-size="13" lengthAdjust="spacing" textLength="96" x="31" y="798.1216">choose subject</text><polygon fill="#181818" points="488,828.3203,498,832.3203,488,836.3203,492,832.3203" style="stroke:#181818;stroke-width:1.0;"/><line style="stroke:#181818;stroke-width:1.0;" x1="266" x2="494" y1="832.3203" y2="832.3203"/><text fill="#000000" font-family="sans-serif" font-size="13" lengthAdjust="spacing" textLength="161" x="273" y="827.2544">searchClasses(subjectID)</text><polygon fill="#181818" points="921.5,857.4531,931.5,861.4531,921.5,865.4531,925.5,861.4531" style="stroke:#181818;stroke-width:1.0;"/><line style="stroke:#181818;stroke-width:1.0;" x1="500" x2="927.5" y1="861.4531" y2="861.4531"/><text fill="#000000" font-family="sans-serif" font-size="13" lengthAdjust="spacing" textLength="101" x="507" y="856.3872">GET /api/classID</text><polygon fill="#181818" points="1082.5,886.5859,1092.5,890.5859,1082.5,894.5859,1086.5,890.5859" style="stroke:#181818;stroke-width:1.0;"/><line style="stroke:#181818;stroke-width:1.0;" x1="933.5" x2="1088.5" y1="890.5859" y2="890.5859"/><text fill="#000000" font-family="sans-serif" font-size="13" lengthAdjust="spacing" textLength="137" x="940.5" y="885.52">getClassID(subjectID)</text><polygon fill="#181818" points="1235.5,915.7188,1245.5,919.7188,1235.5,923.7188,1239.5,919.7188" style="stroke:#181818;stroke-width:1.0;"/><line style="stroke:#181818;stroke-width:1.0;" x1="1094.5" x2="1241.5" y1="919.7188" y2="919.7188"/><text fill="#000000" font-family="sans-serif" font-size="13" lengthAdjust="spacing" textLength="90" x="1101.5" y="914.6528">HTTP class list</text><polygon fill="#181818" points="1105.5,944.8516,1095.5,948.8516,1105.5,952.8516,1101.5,948.8516" style="stroke:#181818;stroke-width:1.0;"/><line style="stroke:#181818;stroke-width:1.0;stroke-dasharray:2.0,2.0;" x1="1099.5" x2="1246.5" y1="948.8516" y2="948.8516"/><text fill="#000000" font-family="sans-serif" font-size="13" lengthAdjust="spacing" textLength="85" x="1111.5" y="943.7856">raw response</text><polygon fill="#181818" points="944.5,973.9844,934.5,977.9844,944.5,981.9844,940.5,977.9844" style="stroke:#181818;stroke-width:1.0;"/><line style="stroke:#181818;stroke-width:1.0;stroke-dasharray:2.0,2.0;" x1="938.5" x2="1093.5" y1="977.9844" y2="977.9844"/><text fill="#000000" font-family="sans-serif" font-size="13" lengthAdjust="spacing" textLength="102" x="950.5" y="972.9185">parsed class list</text><polygon fill="#181818" points="511,1003.1172,501,1007.1172,511,1011.1172,507,1007.1172" style="stroke:#181818;stroke-width:1.0;"/><line style="stroke:#181818;stroke-width:1.0;stroke-dasharray:2.0,2.0;" x1="505" x2="932.5" y1="1007.1172" y2="1007.1172"/><text fill="#000000" font-family="sans-serif" font-size="13" lengthAdjust="spacing" textLength="90" x="517" y="1002.0513">JSON class list</text><polygon fill="#181818" points="680,1032.25,690,1036.25,680,1040.25,684,1036.25" style="stroke:#181818;stroke-width:1.0;"/><line style="stroke:#181818;stroke-width:1.0;" x1="500" x2="686" y1="1036.25" y2="1036.25"/><text fill="#000000" font-family="sans-serif" font-size="13" lengthAdjust="spacing" textLength="130" x="507" y="1031.1841">createClassEntry(...)</text><polygon fill="#181818" points="277,1061.3828,267,1065.3828,277,1069.3828,273,1065.3828" style="stroke:#181818;stroke-width:1.0;"/><line style="stroke:#181818;stroke-width:1.0;stroke-dasharray:2.0,2.0;" x1="271" x2="499" y1="1065.3828" y2="1065.3828"/><text fill="#000000" font-family="sans-serif" font-size="13" lengthAdjust="spacing" textLength="54" x="283" y="1060.3169">class list</text><line style="stroke:#181818;stroke-width:1.0;" x1="266" x2="308" y1="1094.5156" y2="1094.5156"/><line style="stroke:#181818;stroke-width:1.0;" x1="308" x2="308" y1="1094.5156" y2="1107.5156"/><line style="stroke:#181818;stroke-width:1.0;" x1="267" x2="308" y1="1107.5156" y2="1107.5156"/><polygon fill="#181818" points="277,1103.5156,267,1107.5156,277,1111.5156,273,1107.5156" style="stroke:#181818;stroke-width:1.0;"/><text fill="#000000" font-family="sans-serif" font-size="13" lengthAdjust="spacing" textLength="210" x="273" y="1089.4497">store in state and render classes</text><rect fill="#EEEEEE" height="3" style="stroke:#EEEEEE;stroke-width:1.0;" width="1410.5" x="0" y="1136.082"/><line style="stroke:#000000;stroke-width:1.0;" x1="0" x2="1410.5" y1="1136.082" y2="1136.082"/><line style="stroke:#000000;stroke-width:1.0;" x1="0" x2="1410.5" y1="1139.082" y2="1139.082"/><rect fill="#EEEEEE" height="23.1328" style="stroke:#000000;stroke-width:2.0;" width="171" x="619.75" y="1125.5156"/><text fill="#000000" font-family="sans-serif" font-size="13" font-weight="bold" lengthAdjust="spacing" textLength="152" x="625.75" y="1141.5825">Schedule generation</text><polygon fill="#181818" points="254,1175.7813,264,1179.7813,254,1183.7813,258,1179.7813" style="stroke:#181818;stroke-width:1.0;"/><line style="stroke:#181818;stroke-width:1.0;" x1="24" x2="260" y1="1179.7813" y2="1179.7813"/><text fill="#000000" font-family="sans-serif" font-size="13" lengthAdjust="spacing" textLength="218" x="31" y="1174.7153">select sections and click Generate</text><polygon fill="#181818" points="1338.5,1204.9141,1348.5,1208.9141,1338.5,1212.9141,1342.5,1208.9141" style="stroke:#181818;stroke-width:1.0;"/><line style="stroke:#181818;stroke-width:1.0;" x1="266" x2="1344.5" y1="1208.9141" y2="1208.9141"/><text fill="#000000" font-family="sans-serif" font-size="13" lengthAdjust="spacing" textLength="243" x="273" y="1203.8481">generateSchedules(selectedSections)</text><polygon fill="#181818" points="277,1234.0469,267,1238.0469,277,1242.0469,273,1238.0469" style="stroke:#181818;stroke-width:1.0;"/><line style="stroke:#181818;stroke-width:1.0;stroke-dasharray:2.0,2.0;" x1="271" x2="1349.5" y1="1238.0469" y2="1238.0469"/><text fill="#000000" font-family="sans-serif" font-size="13" lengthAdjust="spacing" textLength="97" x="283" y="1232.981">valid schedules</text><line style="stroke:#181818;stroke-width:1.0;" x1="266" x2="308" y1="1267.1797" y2="1267.1797"/><line style="stroke:#181818;stroke-width:1.0;" x1="308" x2="308" y1="1267.1797" y2="1280.1797"/><line style="stroke:#181818;stroke-width:1.0;" x1="267" x2="308" y1="1280.1797" y2="1280.1797"/><polygon fill="#181818" points="277,1276.1797,267,1280.1797,277,1284.1797,273,1280.1797" style="stroke:#181818;stroke-width:1.0;"/><text fill="#000000" font-family="sans-serif" font-size="13" lengthAdjust="spacing" textLength="220" x="273" y="1262.1138">store in state and render schedule</text><!--MD5=[d2c61fce03495f22a0701cbb311c90e0]
@startuml
title Search and Schedule Generation - Sequence Diagram

actor User

participant App
participant FEIF as "frontendInterface"
participant DBQ as "dbQueries"
database SQLDB as "SQLite (sql.js)"
participant Server
participant RegClient as "RegistrarClient"
participant Registrar
participant Sched as "getSchedules"

== Subject search ==

User -> App : type subject and click Search
App -> FEIF : searchSubjects(MATH)

FEIF -> DBQ : searchSubjectArea(MATH)
DBQ -> SQLDB : SELECT subjectData
SQLDB - -> DBQ : subject rows
DBQ - -> FEIF : cached subjects

alt subject found in cache
  FEIF - -> App : subject list
  App -> App : store in state and render subjects
else no subject in cache
  FEIF -> Server : GET /api/subjectID
  Server -> RegClient : getSubjectID(MATH)
  RegClient -> Registrar : HTTP subject search
  Registrar - -> RegClient : raw response
  RegClient - -> Server : parsed subject list
  Server - -> FEIF : JSON subject list
  FEIF -> DBQ : createSubjectEntry(...)
  FEIF - -> App : subject list
  App -> App : store in state and render subjects
end

== Class loading ==

User -> App : choose subject
App -> FEIF : searchClasses(subjectID)
FEIF -> Server : GET /api/classID
Server -> RegClient : getClassID(subjectID)
RegClient -> Registrar : HTTP class list
Registrar - -> RegClient : raw response
RegClient - -> Server : parsed class list
Server - -> FEIF : JSON class list
FEIF -> DBQ : createClassEntry(...)
FEIF - -> App : class list
App -> App : store in state and render classes

== Schedule generation ==

User -> App : select sections and click Generate
App -> Sched : generateSchedules(selectedSections)
Sched - -> App : valid schedules
App -> App : store in state and render schedule
@enduml

PlantUML version 1.2022.7(Mon Aug 22 17:01:30 UTC 2022)
(GPL source distribution)
Java Runtime: OpenJDK Runtime Environment
JVM: OpenJDK 64-Bit Server VM
Default Encoding: UTF-8
Language: en
Country: null
--></g></svg>