<?xml version="1.0" encoding="UTF-8" standalone="no"?><svg xmlns="http://www.w3.org/2000/svg" xmlns:xlink="http://www.w3.org/1999/xlink" contentStyleType="text/css" height="693px" preserveAspectRatio="none" style="width:3049px;height:693px;background:#FFFFFF;" version="1.1" viewBox="0 0 3049 693" width="3049px" zoomAndPan="magnify"><defs/><g><rect fill="none" height="26.2969" id="_title" style="stroke:none;stroke-width:1.0;" width="96" x="1469.5" y="5"/><text fill="#000000" font-family="sans-serif" font-size="14" font-weight="bold" lengthAdjust="spacing" textLength="86" x="1474.5" y="22.9951">End-to-End</text><!--MD5=[f9a30e67450ca2f02d105b3b166a218f]
cluster Client (React)--><g id="cluster_Client (React)"><rect fill="none" height="339" rx="2.5" ry="2.5" style="stroke:#181818;stroke-width:1.0;" width="667" x="7" y="44.2969"/><text fill="#000000" font-family="sans-serif" font-size="14" font-weight="bold" lengthAdjust="spacing" textLength="106" x="287.5" y="59.292">Client (React)</text></g><!--MD5=[ba30128d69f71dabe28e6388bd3487b3]
cluster Server (Node/Express)--><g id="cluster_Server (Node/Express)"><rect fill="none" height="525.5" rx="2.5" ry="2.5" style="stroke:#181818;stroke-width:1.0;" width="2167" x="698" y="162.2969"/><text fill="#000000" font-family="sans-serif" font-size="14" font-weight="bold" lengthAdjust="spacing" textLength="179" x="1692" y="177.292">Server (Node/Express)</text></g><!--MD5=[02faaf0049d81246d3e6cb670b1d3606]
cluster API Routes--><g id="cluster_API Routes"><rect fill="none" height="87" rx="2.5" ry="2.5" style="stroke:#181818;stroke-width:1.0;" width="720" x="1134" y="296.2969"/><text fill="#000000" font-family="sans-serif" font-size="14" font-weight="bold" lengthAdjust="spacing" textLength="85" x="1451.5" y="311.292">API Routes</text></g><!--MD5=[e87e34f9d7dce3070483af0e6a2c1706]
cluster DB Layer (SQLite)--><g id="cluster_DB Layer (SQLite)"><rect fill="none" height="231.5" rx="2.5" ry="2.5" style="stroke:#181818;stroke-width:1.0;" width="548" x="1156" y="432.2969"/><text fill="#000000" font-family="sans-serif" font-size="14" font-weight="bold" lengthAdjust="spacing" textLength="138" x="1361" y="447.292">DB Layer (SQLite)</text></g><!--MD5=[767bcd5fa2c2d52c0cf9bd3723cc198a]
cluster Scrapers--><g id="cluster_Scrapers"><rect fill="none" height="87" rx="2.5" ry="2.5" style="stroke:#181818;stroke-width:1.0;" width="572" x="2049" y="432.2969"/><text fill="#000000" font-family="sans-serif" font-size="14" font-weight="bold" lengthAdjust="spacing" textLength="71" x="2299.5" y="447.292">Scrapers</text></g><!--MD5=[7e40339c58605559321960399585b560]
cluster Utils--><g id="cluster_Utils"><rect fill="none" height="87" rx="2.5" ry="2.5" style="stroke:#181818;stroke-width:1.0;" width="196" x="2645" y="432.2969"/><text fill="#000000" font-family="sans-serif" font-size="14" font-weight="bold" lengthAdjust="spacing" textLength="34" x="2726" y="447.292">Utils</text></g><!--MD5=[683d43b02a5b331751b43c848d06d3c3]
cluster External System--><g id="cluster_External System"><rect fill="none" height="87" rx="2.5" ry="2.5" style="stroke:#181818;stroke-width:1.0;" width="154" x="2889" y="568.2969"/><text fill="#000000" font-family="sans-serif" font-size="14" font-weight="bold" lengthAdjust="spacing" textLength="127" x="2902.5" y="583.292">External System</text></g><!--MD5=[6e8f311b0aa23032184ffba0ef926f91]
entity App--><g id="elem_App"><rect fill="#F1F1F1" height="36.2969" rx="2.5" ry="2.5" style="stroke:#181818;stroke-width:0.5;" width="69" x="492.5" y="79.2969"/><text fill="#000000" font-family="sans-serif" font-size="14" lengthAdjust="spacing" textLength="49" x="502.5" y="102.292">App.jsx</text></g><!--MD5=[51a576d9918e05528851692ffd2c095a]
entity LoginPage--><g id="elem_LoginPage"><rect fill="#F1F1F1" height="36.2969" rx="2.5" ry="2.5" style="stroke:#181818;stroke-width:0.5;" width="114" x="396" y="197.2969"/><text fill="#000000" font-family="sans-serif" font-size="14" lengthAdjust="spacing" textLength="94" x="406" y="220.292">LoginPage.jsx</text></g><!--MD5=[b8432cb0683c68af8c1e984afdd470a0]
entity MainPage--><g id="elem_MainPage"><rect fill="#F1F1F1" height="36.2969" rx="2.5" ry="2.5" style="stroke:#181818;stroke-width:0.5;" width="109" x="545.5" y="197.2969"/><text fill="#000000" font-family="sans-serif" font-size="14" lengthAdjust="spacing" textLength="89" x="555.5" y="220.292">MainPage.jsx</text></g><!--MD5=[5e2cc4213fc2cd0b46de61fb6e16e2df]
entity SubjectSearch--><g id="elem_SubjectSearch"><rect fill="#F1F1F1" height="36.2969" rx="2.5" ry="2.5" style="stroke:#181818;stroke-width:0.5;" width="142" x="353" y="331.2969"/><text fill="#000000" font-family="sans-serif" font-size="14" lengthAdjust="spacing" textLength="122" x="363" y="354.292">SubjectSearch.jsx</text></g><!--MD5=[28a5decedef311ca338cdc86e6f11752]
entity ClassSearch--><g id="elem_ClassSearch"><rect fill="#F1F1F1" height="36.2969" rx="2.5" ry="2.5" style="stroke:#181818;stroke-width:0.5;" width="127" x="530.5" y="331.2969"/><text fill="#000000" font-family="sans-serif" font-size="14" lengthAdjust="spacing" textLength="107" x="540.5" y="354.292">ClassSearch.jsx</text></g><!--MD5=[ff68ba7d5888d2a6dfbb7d1f8416bfba]
entity ChosenClasses--><g id="elem_ChosenClasses"><rect fill="#F1F1F1" height="36.2969" rx="2.5" ry="2.5" style="stroke:#181818;stroke-width:0.5;" width="150" x="23" y="331.2969"/><text fill="#000000" font-family="sans-serif" font-size="14" lengthAdjust="spacing" textLength="130" x="33" y="354.292">ChosenClasses.jsx</text></g><!--MD5=[dc21368e1a89e5634f8e4303e7c1f4c8]
entity Timetable--><g id="elem_Timetable"><rect fill="#F1F1F1" height="36.2969" rx="2.5" ry="2.5" style="stroke:#181818;stroke-width:0.5;" width="110" x="208" y="331.2969"/><text fill="#000000" font-family="sans-serif" font-size="14" lengthAdjust="spacing" textLength="90" x="218" y="354.292">Timetable.jsx</text></g><!--MD5=[b1435b213846e3ddcd1e6c1cd6b83b9a]
entity Server--><g id="elem_Server"><rect fill="#F1F1F1" height="36.2969" rx="2.5" ry="2.5" style="stroke:#181818;stroke-width:0.5;" width="78" x="1551" y="197.2969"/><text fill="#000000" font-family="sans-serif" font-size="14" lengthAdjust="spacing" textLength="58" x="1561" y="220.292">server.js</text></g><!--MD5=[0d9d767b7cd80dadc8faa5de472fd018]
entity RSubjects--><g id="elem_RSubjects"><rect fill="#F1F1F1" height="36.2969" rx="2.5" ry="2.5" style="stroke:#181818;stroke-width:0.5;" width="144" x="1694" y="331.2969"/><text fill="#000000" font-family="sans-serif" font-size="14" lengthAdjust="spacing" textLength="124" x="1704" y="354.292">routes/subjects.js</text></g><!--MD5=[8d717d87b114a412aeea4c30c7231d95]
entity RClasses--><g id="elem_RClasses"><rect fill="#F1F1F1" height="36.2969" rx="2.5" ry="2.5" style="stroke:#181818;stroke-width:0.5;" width="137" x="1521.5" y="331.2969"/><text fill="#000000" font-family="sans-serif" font-size="14" lengthAdjust="spacing" textLength="117" x="1531.5" y="354.292">routes/classes.js</text></g><!--MD5=[cfa53e2b1370441309f57d3be31b889c]
entity RSections--><g id="elem_RSections"><rect fill="#F1F1F1" height="36.2969" rx="2.5" ry="2.5" style="stroke:#181818;stroke-width:0.5;" width="144" x="1150" y="331.2969"/><text fill="#000000" font-family="sans-serif" font-size="14" lengthAdjust="spacing" textLength="124" x="1160" y="354.292">routes/sections.js</text></g><!--MD5=[d1316af514646ba02a05b6e96d6ae96c]
entity RSchedules--><g id="elem_RSchedules"><rect fill="#F1F1F1" height="36.2969" rx="2.5" ry="2.5" style="stroke:#181818;stroke-width:0.5;" width="157" x="1329.5" y="331.2969"/><text fill="#000000" font-family="sans-serif" font-size="14" lengthAdjust="spacing" textLength="137" x="1339.5" y="354.292">routes/schedules.js</text></g><!--MD5=[289ed733d10137c15eb2834fe6410e3f]
entity InitDB--><g id="elem_InitDB"><rect fill="#F1F1F1" height="36.2969" rx="2.5" ry="2.5" style="stroke:#181818;stroke-width:0.5;" width="99" x="1588.5" y="467.2969"/><text fill="#000000" font-family="sans-serif" font-size="14" lengthAdjust="spacing" textLength="79" x="1598.5" y="490.292">db/initDB.js</text></g><!--MD5=[f9b0b0a6c71da42b18cce313e4222ffb]
entity SubjectDB--><g id="elem_SubjectDB"><rect fill="#F1F1F1" height="36.2969" rx="2.5" ry="2.5" style="stroke:#181818;stroke-width:0.5;" width="109" x="1444.5" y="467.2969"/><text fill="#000000" font-family="sans-serif" font-size="14" lengthAdjust="spacing" textLength="89" x="1454.5" y="490.292">db/subject.js</text></g><!--MD5=[7b8f95072e65635c604922d52ec05ed4]
entity ClassDB--><g id="elem_ClassDB"><rect fill="#F1F1F1" height="36.2969" rx="2.5" ry="2.5" style="stroke:#181818;stroke-width:0.5;" width="93" x="1316.5" y="467.2969"/><text fill="#000000" font-family="sans-serif" font-size="14" lengthAdjust="spacing" textLength="73" x="1326.5" y="490.292">db/class.js</text></g><!--MD5=[592164061cc28a5ca8b291d87650580e]
entity SectionDB--><g id="elem_SectionDB"><rect fill="#F1F1F1" height="36.2969" rx="2.5" ry="2.5" style="stroke:#181818;stroke-width:0.5;" width="109" x="1172.5" y="467.2969"/><text fill="#000000" font-family="sans-serif" font-size="14" lengthAdjust="spacing" textLength="89" x="1182.5" y="490.292">db/section.js</text></g><!--MD5=[7537026df0104cef260219fe8092b946]
entity SQLiteDB--><g id="elem_SQLiteDB"><rect fill="#F1F1F1" height="52.5938" rx="2.5" ry="2.5" style="stroke:#181818;stroke-width:0.5;" width="198" x="1322" y="594.7969"/><text fill="#000000" font-family="sans-serif" font-size="14" font-style="italic" lengthAdjust="spacing" textLength="82" x="1380" y="617.792">«database»</text><text fill="#000000" font-family="sans-serif" font-size="14" lengthAdjust="spacing" textLength="178" x="1332" y="634.0889">server/sql/database.sqlite</text></g><!--MD5=[dcdcd1ebdcdb9cafcb9941e65b40c5ee]
entity SSubjects--><g id="elem_SSubjects"><rect fill="#F1F1F1" height="36.2969" rx="2.5" ry="2.5" style="stroke:#181818;stroke-width:0.5;" width="159" x="2446.5" y="467.2969"/><text fill="#000000" font-family="sans-serif" font-size="14" lengthAdjust="spacing" textLength="139" x="2456.5" y="490.292">scrapers/subjects.js</text></g><!--MD5=[368e961858c53ac73fc1fce827dcf139]
entity SClasses--><g id="elem_SClasses"><rect fill="#F1F1F1" height="36.2969" rx="2.5" ry="2.5" style="stroke:#181818;stroke-width:0.5;" width="152" x="2259" y="467.2969"/><text fill="#000000" font-family="sans-serif" font-size="14" lengthAdjust="spacing" textLength="132" x="2269" y="490.292">scrapers/classes.js</text></g><!--MD5=[4e883e138dc262ab2341a6676d023bee]
entity SSections--><g id="elem_SSections"><rect fill="#F1F1F1" height="36.2969" rx="2.5" ry="2.5" style="stroke:#181818;stroke-width:0.5;" width="159" x="2064.5" y="467.2969"/><text fill="#000000" font-family="sans-serif" font-size="14" lengthAdjust="spacing" textLength="139" x="2074.5" y="490.292">scrapers/sections.js</text></g><!--MD5=[5eaa1e07372ef54334ea328f1a7a8e83]
entity SchedUtil--><g id="elem_SchedUtil"><rect fill="#F1F1F1" height="36.2969" rx="2.5" ry="2.5" style="stroke:#181818;stroke-width:0.5;" width="164" x="2661" y="467.2969"/><text fill="#000000" font-family="sans-serif" font-size="14" lengthAdjust="spacing" textLength="144" x="2671" y="490.292">utils/getSchedules.js</text></g><!--MD5=[e9414f4a16cbadc7d436f402f11a724f]
entity Registrar--><g id="elem_Registrar"><rect fill="#F1F1F1" height="36.2969" rx="2.5" ry="2.5" style="stroke:#181818;stroke-width:0.5;" width="122" x="2905" y="603.2969"/><text fill="#000000" font-family="sans-serif" font-size="14" lengthAdjust="spacing" textLength="102" x="2915" y="626.292">UCLA Registrar</text></g><!--MD5=[70ac0cff922c188dad5fb06043a408b1]
link App to LoginPage--><g id="link_App_LoginPage"><path d="M516.08,115.4169 C502.96,135.9769 480.95,170.4869 466.7,192.8169 " fill="none" id="App-to-LoginPage" style="stroke:#181818;stroke-width:1.0;"/><polygon fill="#181818" points="463.96,197.1069,472.1701,191.6668,466.6472,192.8903,465.4236,187.3674,463.96,197.1069" style="stroke:#181818;stroke-width:1.0;"/></g><!--MD5=[0ac1803c40c643ec03903f95be716ba1]
link App to MainPage--><g id="link_App_MainPage"><path d="M537.77,115.4169 C550.71,135.9769 572.43,170.4869 586.48,192.8169 " fill="none" id="App-to-MainPage" style="stroke:#181818;stroke-width:1.0;"/><polygon fill="#181818" points="589.18,197.1069,587.7784,187.3583,586.5197,192.8733,581.0047,191.6147,589.18,197.1069" style="stroke:#181818;stroke-width:1.0;"/></g><!--MD5=[a4526f0f8937ab5a87edd8c2397e58dd]
link MainPage to SubjectSearch--><g id="link_MainPage_SubjectSearch"><path d="M576.99,233.5569 C544.49,257.9269 485.26,302.3469 450.81,328.1869 " fill="none" id="MainPage-to-SubjectSearch" style="stroke:#181818;stroke-width:1.0;"/><polygon fill="#181818" points="446.74,331.2469,456.34,329.0469,450.74,328.2469,451.54,322.6469,446.74,331.2469" style="stroke:#181818;stroke-width:1.0;"/></g><!--MD5=[c948842c3c83a6024a3d93f88115fbd9]
link MainPage to ClassSearch--><g id="link_MainPage_ClassSearch"><path d="M599.22,233.5569 C598.14,257.1669 596.21,299.6069 595.03,325.7269 " fill="none" id="MainPage-to-ClassSearch" style="stroke:#181818;stroke-width:1.0;"/><polygon fill="#181818" points="594.78,331.0369,599.1868,322.2289,595.0083,326.0421,591.1952,321.8636,594.78,331.0369" style="stroke:#181818;stroke-width:1.0;"/></g><!--MD5=[c44c3e212af59ff15ff65cef8b87df74]
link MainPage to ChosenClasses--><g id="link_MainPage_ChosenClasses"><path d="M545.44,229.6069 C539.57,230.9069 533.67,232.1669 528,233.2969 C378.73,263.0269 331.92,233.3169 190,288.2969 C165.41,297.8269 140.54,314.5669 122.87,327.9469 " fill="none" id="MainPage-to-ChosenClasses" style="stroke:#181818;stroke-width:1.0;"/><polygon fill="#181818" points="118.54,331.2669,128.1169,328.9683,122.509,328.2259,123.2513,322.618,118.54,331.2669" style="stroke:#181818;stroke-width:1.0;"/></g><!--MD5=[2814f0b8ff91b979ef158f664e1c0422]
link MainPage to Timetable--><g id="link_MainPage_Timetable"><path d="M545.43,229.8769 C473.73,247.9169 354.67,278.6469 336,288.2969 C316.29,298.4869 297.02,314.6669 283.24,327.6569 " fill="none" id="MainPage-to-Timetable" style="stroke:#181818;stroke-width:1.0;"/><polygon fill="#181818" points="279.5,331.2269,288.7755,327.9156,283.1203,327.7782,283.2577,322.1231,279.5,331.2269" style="stroke:#181818;stroke-width:1.0;"/></g><!--MD5=[303a4b5c2d45b76cd05e9eb5a10233bf]
link MainPage to RSubjects--><g id="link_MainPage_RSubjects"><path d="M654.53,226.8069 C668.65,229.2369 683.85,231.6069 698,233.2969 C897.91,257.2069 954.38,215.6969 1150,263.2969 C1168.37,267.7669 1170.52,276.2869 1189,280.2969 C1241.89,291.7769 1624.33,272.1869 1676,288.2969 C1701.29,296.1769 1726.03,313.5869 1743.15,327.6369 " fill="none" id="MainPage-to-RSubjects" style="stroke:#181818;stroke-width:1.0;"/><polygon fill="#181818" points="1747.34,331.1269,1742.9835,322.2939,1743.4977,327.9274,1737.8643,328.4416,1747.34,331.1269" style="stroke:#181818;stroke-width:1.0;"/><text fill="#000000" font-family="sans-serif" font-size="13" lengthAdjust="spacing" textLength="109" x="1190" y="276.3638">GET /api/subjects</text></g><!--MD5=[878c7f50712be593af0c18992d471850]
link MainPage to RClasses--><g id="link_MainPage_RClasses"><path d="M654.58,226.4869 C668.69,228.9169 683.88,231.3669 698,233.2969 C831.21,251.4669 868.48,231.0869 999,263.2969 C1018.55,268.1269 1021.27,276.2769 1041,280.2969 C1091.42,290.5669 1455.05,272.4469 1504,288.2969 C1528.43,296.2069 1552.04,313.6169 1568.33,327.6569 " fill="none" id="MainPage-to-RClasses" style="stroke:#181818;stroke-width:1.0;"/><polygon fill="#181818" points="1572.31,331.1469,1568.1876,322.2023,1568.5533,327.8473,1562.9083,328.2129,1572.31,331.1469" style="stroke:#181818;stroke-width:1.0;"/><text fill="#000000" font-family="sans-serif" font-size="13" lengthAdjust="spacing" textLength="103" x="1042" y="276.3638">GET /api/classes</text></g><!--MD5=[5bb45d48584fba4c670e5918f8130086]
link MainPage to RSections--><g id="link_MainPage_RSections"><path d="M621.25,233.4969 C640.95,248.4569 671.7,269.4069 702,280.2969 C852.39,334.3769 1041.03,346.2669 1144.75,348.3969 " fill="none" id="MainPage-to-RSections" style="stroke:#181818;stroke-width:1.0;"/><polygon fill="#181818" points="1149.93,348.4969,1141.0118,344.3177,1144.931,348.3969,1140.8518,352.3161,1149.93,348.4969" style="stroke:#181818;stroke-width:1.0;"/><text fill="#000000" font-family="sans-serif" font-size="13" lengthAdjust="spacing" textLength="109" x="703" y="276.3638">GET /api/sections</text></g><!--MD5=[3d4434d54da87b6a52e89cd3c342300d]
link MainPage to RSchedules--><g id="link_MainPage_RSchedules"><path d="M654.9,226.0769 C699.08,234.4569 762.55,247.6269 817,263.2969 C838.35,269.4369 842.16,276.2669 864,280.2969 C912.96,289.3269 1264.27,274.1469 1312,288.2969 C1338.8,296.2469 1365.46,313.8869 1383.86,327.9869 " fill="none" id="MainPage-to-RSchedules" style="stroke:#181818;stroke-width:1.0;"/><polygon fill="#181818" points="1387.88,331.1269,1383.2381,322.4405,1383.9355,328.0542,1378.3219,328.7516,1387.88,331.1269" style="stroke:#181818;stroke-width:1.0;"/><text fill="#000000" font-family="sans-serif" font-size="13" lengthAdjust="spacing" textLength="129" x="865" y="276.3638">POST /api/schedules</text></g><!--MD5=[91f790b482c7223d129eff7a988cad42]
link Server to InitDB--><g id="link_Server_InitDB"><path d="M1629.01,216.7369 C1852.57,219.8769 2955.3,244.1269 2785,416.2969 C2777.81,423.5669 2059.19,423.4969 2049,424.2969 C1920.62,434.3169 1771.35,459.5569 1692.81,473.9069 " fill="none" id="Server-to-InitDB" style="stroke:#181818;stroke-width:1.0;"/><polygon fill="#181818" points="1687.74,474.8369,1697.3121,477.1551,1692.6587,473.9387,1695.875,469.2852,1687.74,474.8369" style="stroke:#181818;stroke-width:1.0;"/><text fill="#000000" font-family="sans-serif" font-size="13" lengthAdjust="spacing" textLength="48" x="2803" y="353.8638">initDB()</text></g><!--MD5=[b769fb296b39c8ac300ca7348302c3e0]
link Server to RSubjects--><g id="link_Server_RSubjects"><path d="M1613.01,233.5569 C1645.51,257.9269 1704.74,302.3469 1739.19,328.1869 " fill="none" id="Server-to-RSubjects" style="stroke:#181818;stroke-width:1.0;"/><polygon fill="#181818" points="1743.26,331.2469,1738.46,322.6469,1739.26,328.2469,1733.66,329.0469,1743.26,331.2469" style="stroke:#181818;stroke-width:1.0;"/></g><!--MD5=[f5f13da657b6b7676da9ab707e65431f]
link Server to RClasses--><g id="link_Server_RClasses"><path d="M1590,233.5569 C1590,257.1669 1590,299.6069 1590,325.7269 " fill="none" id="Server-to-RClasses" style="stroke:#181818;stroke-width:1.0;"/><polygon fill="#181818" points="1590,331.0369,1594,322.0369,1590,326.0369,1586,322.0369,1590,331.0369" style="stroke:#181818;stroke-width:1.0;"/></g><!--MD5=[7871ad995865bf21958667e0e33e6fcc]
link Server to RSections--><g id="link_Server_RSections"><path d="M1550.86,222.1769 C1495.76,231.3969 1393.01,252.0569 1312,288.2969 C1288.77,298.6869 1264.91,314.8969 1247.61,327.8469 " fill="none" id="Server-to-RSections" style="stroke:#181818;stroke-width:1.0;"/><polygon fill="#181818" points="1243.35,331.0569,1252.9411,328.8185,1247.338,328.0409,1248.1155,322.4377,1243.35,331.0569" style="stroke:#181818;stroke-width:1.0;"/></g><!--MD5=[265342eb5328817b4471426a892c51d1]
link Server to RSchedules--><g id="link_Server_RSchedules"><path d="M1566.21,233.5569 C1532.6,257.9269 1471.35,302.3469 1435.72,328.1869 " fill="none" id="Server-to-RSchedules" style="stroke:#181818;stroke-width:1.0;"/><polygon fill="#181818" points="1431.51,331.2469,1441.1404,329.1842,1435.5524,328.3043,1436.4324,322.7163,1431.51,331.2469" style="stroke:#181818;stroke-width:1.0;"/></g><!--MD5=[507e37eebff55a1a45f633ff9cd41ac4]
link InitDB to SQLiteDB--><g id="link_InitDB_SQLiteDB"><path d="M1610.08,503.5369 C1573.89,525.8869 1510.3,565.1569 1466.95,591.9269 " fill="none" id="InitDB-to-SQLiteDB" style="stroke:#181818;stroke-width:1.0;"/><polygon fill="#181818" points="1462.56,594.6369,1472.3193,593.312,1466.8144,592.01,1468.1164,586.505,1462.56,594.6369" style="stroke:#181818;stroke-width:1.0;"/><text fill="#000000" font-family="sans-serif" font-size="13" lengthAdjust="spacing" textLength="122" x="1556" y="548.3638">open/create DB file</text></g><!--MD5=[310b38f6bcb80b7ae2e3a0cdb31623e1]
link RSubjects to SubjectDB--><g id="link_RSubjects_SubjectDB"><path d="M1790.41,367.3869 C1804.72,376.3769 1823.57,386.5069 1842,391.2969 C1857.81,395.4069 2418.53,387.6669 2430,399.2969 C2435.31,404.6769 2435.32,410.9269 2430,416.2969 C2413.21,433.2469 1593.4,416.0669 1571,424.2969 C1549.64,432.1469 1530.13,449.3269 1516.82,463.2969 " fill="none" id="RSubjects-to-SubjectDB" style="stroke:#181818;stroke-width:1.0;"/><polygon fill="#181818" points="1513.24,467.1469,1522.2976,463.279,1516.6444,463.4849,1516.4385,457.8318,1513.24,467.1469" style="stroke:#181818;stroke-width:1.0;"/><text fill="#000000" font-family="sans-serif" font-size="13" lengthAdjust="spacing" textLength="226" x="2434" y="412.3638">getSubjects(), createSubjectEntry()</text></g><!--MD5=[669654560330c82e1b955fd21d1bb04c]
link RClasses to ClassDB--><g id="link_RClasses_ClassDB"><path d="M1606.59,367.3669 C1618.77,381.9369 1631.09,402.6469 1618,416.2969 C1603.3,431.6269 1446.58,416.0769 1427,424.2969 C1407.66,432.4169 1390.6,449.1769 1378.97,462.9169 " fill="none" id="RClasses-to-ClassDB" style="stroke:#181818;stroke-width:1.0;"/><polygon fill="#181818" points="1375.54,467.0769,1384.3457,462.6655,1378.7155,463.2147,1378.1662,457.5846,1375.54,467.0769" style="stroke:#181818;stroke-width:1.0;"/><text fill="#000000" font-family="sans-serif" font-size="13" lengthAdjust="spacing" textLength="206" x="1624" y="412.3638">getClasses(), createClassEntry()</text></g><!--MD5=[1dec7c5e32c0731af9a86080bb40b96c]
link RClasses to SubjectDB--><g id="link_RClasses_SubjectDB"><path d="M1618.29,367.3369 C1634.79,376.3069 1656.36,386.4369 1677,391.2969 C1696.42,395.8669 2022.05,385.0369 2036,399.2969 C2041.28,404.6969 2041.3,410.9069 2036,416.2969 C2026.94,425.5069 1583.11,419.7969 1571,424.2969 C1549.67,432.2269 1530.16,449.3969 1516.84,463.3469 " fill="none" id="RClasses-to-SubjectDB" style="stroke:#181818;stroke-width:1.0;"/><polygon fill="#181818" points="1513.26,467.1869,1522.3256,463.3379,1516.6721,463.5321,1516.4779,457.8786,1513.26,467.1869" style="stroke:#181818;stroke-width:1.0;"/><text fill="#000000" font-family="sans-serif" font-size="13" lengthAdjust="spacing" textLength="93" x="2040" y="412.3638">subjectExists()</text></g><!--MD5=[fbfb742c33c40cfb46848111491772bc]
link RSections to SectionDB--><g id="link_RSections_SectionDB"><path d="M1149.67,352.5069 C1023.15,357.1369 772.51,369.9269 746,399.2969 C688.23,463.3169 1025.85,479.2669 1167.08,483.1169 " fill="none" id="RSections-to-SectionDB" style="stroke:#181818;stroke-width:1.0;"/><polygon fill="#181818" points="1172.42,483.2569,1163.5258,479.0268,1167.4217,483.1283,1163.3202,487.0242,1172.42,483.2569" style="stroke:#181818;stroke-width:1.0;"/><text fill="#000000" font-family="sans-serif" font-size="13" lengthAdjust="spacing" textLength="94" x="747" y="412.3638">getSectionAll()</text></g><!--MD5=[1c8f0082e0a282b2c7e4d00cabc9c5d1]
link RSections to SubjectDB--><g id="link_RSections_SubjectDB"><path d="M1149.89,356.7269 C1090.44,364.6369 1020.98,381.5369 1055,416.2969 C1069.46,431.0669 1407.64,417.0469 1427,424.2969 C1448.31,432.2769 1467.83,449.4369 1481.15,463.3769 " fill="none" id="RSections-to-SubjectDB" style="stroke:#181818;stroke-width:1.0;"/><polygon fill="#181818" points="1484.74,467.2169,1481.5221,457.9086,1481.3279,463.5621,1475.6744,463.3679,1484.74,467.2169" style="stroke:#181818;stroke-width:1.0;"/><text fill="#000000" font-family="sans-serif" font-size="13" lengthAdjust="spacing" textLength="93" x="1056" y="412.3638">subjectExists()</text></g><!--MD5=[df57845aec05a2ebab17d8a9b55a41c3]
link RSections to ClassDB--><g id="link_RSections_ClassDB"><path d="M1149.96,353.4969 C1039.01,359.7169 842.94,376.4869 882,416.2969 C898.23,432.8369 1277.54,415.5669 1299,424.2969 C1318.56,432.2469 1335.71,449.1869 1347.32,463.0469 " fill="none" id="RSections-to-ClassDB" style="stroke:#181818;stroke-width:1.0;"/><polygon fill="#181818" points="1350.74,467.2369,1348.152,457.7341,1347.58,463.362,1341.9522,462.7901,1350.74,467.2369" style="stroke:#181818;stroke-width:1.0;"/><text fill="#000000" font-family="sans-serif" font-size="13" lengthAdjust="spacing" textLength="79" x="883" y="412.3638">classExists()</text></g><!--MD5=[324f405296fe3ea905777e25a8345625]
link RSchedules to SubjectDB--><g id="link_RSchedules_SubjectDB"><path d="M1470.17,367.3769 C1485.45,374.6669 1500,384.9269 1509,399.2969 C1520.82,418.1769 1515.37,444.0869 1508.82,462.3269 " fill="none" id="RSchedules-to-SubjectDB" style="stroke:#181818;stroke-width:1.0;"/><polygon fill="#181818" points="1506.96,467.2569,1513.8912,460.2599,1508.7328,462.5817,1506.411,457.4233,1506.96,467.2569" style="stroke:#181818;stroke-width:1.0;"/><text fill="#000000" font-family="sans-serif" font-size="13" lengthAdjust="spacing" textLength="93" x="1516" y="412.3638">subjectExists()</text></g><!--MD5=[266cc815001062018d790e4a4a9fbba4]
link RSchedules to ClassDB--><g id="link_RSchedules_ClassDB"><path d="M1350.1,367.3969 C1335.11,374.7269 1320.75,385.0169 1312,399.2969 C1298.72,420.9969 1317.78,445.9769 1336.26,463.2069 " fill="none" id="RSchedules-to-ClassDB" style="stroke:#181818;stroke-width:1.0;"/><polygon fill="#181818" points="1340.43,466.9869,1336.4526,457.9769,1336.7271,463.6271,1331.0769,463.9016,1340.43,466.9869" style="stroke:#181818;stroke-width:1.0;"/><text fill="#000000" font-family="sans-serif" font-size="13" lengthAdjust="spacing" textLength="191" x="1313" y="412.3638">classExists(), getClassName()</text></g><!--MD5=[400b18c796b8fd920655ed837c063bf5]
link RSchedules to SectionDB--><g id="link_RSchedules_SectionDB"><path d="M1375.64,367.4769 C1357.47,376.2569 1334.06,386.1569 1312,391.2969 C1296.07,395.0069 1176.25,387.4169 1165,399.2969 C1145.77,419.6069 1171.73,446.0369 1195.7,463.9969 " fill="none" id="RSchedules-to-SectionDB" style="stroke:#181818;stroke-width:1.0;"/><polygon fill="#181818" points="1199.83,467.0269,1194.9418,458.4767,1195.7993,464.0682,1190.2079,464.9258,1199.83,467.0269" style="stroke:#181818;stroke-width:1.0;"/><text fill="#000000" font-family="sans-serif" font-size="13" lengthAdjust="spacing" textLength="132" x="1166" y="412.3638">upsertSectionEntry()</text></g><!--MD5=[8c85c79892146f66adfac2dc78c16dde]
link RSchedules to SchedUtil--><g id="link_RSchedules_SchedUtil"><path d="M1439.4,367.4369 C1457.67,376.4369 1481.47,386.5669 1504,391.2969 C1589.58,409.2569 2206.25,377.7269 2291,399.2969 C2306.61,403.2669 2307.43,412.1969 2323,416.2969 C2387.06,433.1769 2556.68,408.4269 2621,424.2969 C2654.01,432.4469 2688.49,450.4169 2712.34,464.5769 " fill="none" id="RSchedules-to-SchedUtil" style="stroke:#181818;stroke-width:1.0;"/><polygon fill="#181818" points="2716.67,467.1769,2711.0105,459.1164,2712.3825,464.6044,2706.8946,465.9764,2716.67,467.1769" style="stroke:#181818;stroke-width:1.0;"/><text fill="#000000" font-family="sans-serif" font-size="13" lengthAdjust="spacing" textLength="97" x="2324" y="412.3638">getSchedules()</text></g><!--MD5=[f980146225286eade005a872f5ccd6bc]
link SubjectDB to SQLiteDB--><g id="link_SubjectDB_SQLiteDB"><path d="M1488.96,503.5369 C1476.28,525.3269 1454.25,563.1869 1438.71,589.8769 " fill="none" id="SubjectDB-to-SQLiteDB" style="stroke:#181818;stroke-width:1.0;"/><polygon fill="#181818" points="1436.08,594.3869,1444.0593,588.6136,1438.5914,590.0633,1437.1416,584.5954,1436.08,594.3869" style="stroke:#181818;stroke-width:1.0;"/></g><!--MD5=[1fbabbaf1d47513691f6ef64c00125fa]
link ClassDB to SQLiteDB--><g id="link_ClassDB_SQLiteDB"><path d="M1370.46,503.5369 C1379.85,525.2369 1396.14,562.8669 1407.69,589.5469 " fill="none" id="ClassDB-to-SQLiteDB" style="stroke:#181818;stroke-width:1.0;"/><polygon fill="#181818" points="1409.79,594.3869,1409.8955,584.5386,1407.8084,589.7963,1402.5506,587.7092,1409.79,594.3869" style="stroke:#181818;stroke-width:1.0;"/></g><!--MD5=[a0abae84c9784a335eae63439689452c]
link SectionDB to SQLiteDB--><g id="link_SectionDB_SQLiteDB"><path d="M1251.96,503.5369 C1284.25,525.8469 1340.93,564.9969 1379.69,591.7569 " fill="none" id="SectionDB-to-SQLiteDB" style="stroke:#181818;stroke-width:1.0;"/><polygon fill="#181818" points="1383.85,594.6369,1378.7195,586.2298,1379.7365,591.7945,1374.1718,592.8115,1383.85,594.6369" style="stroke:#181818;stroke-width:1.0;"/></g><!--MD5=[bd595361a87dc4f61f9a93452e6e6f07]
link RSubjects to SSubjects--><g id="link_RSubjects_SSubjects"><path d="M1790.4,367.4169 C1804.71,376.4169 1823.56,386.5469 1842,391.2969 C1853.12,394.1669 2660.92,391.1369 2669,399.2969 C2674.32,404.6669 2673.42,410.1669 2669,416.2969 C2662.43,425.4169 2655.38,419.9769 2645,424.2969 C2616.16,436.2969 2584.65,452.3269 2561.3,464.7969 " fill="none" id="RSubjects-to-SSubjects" style="stroke:#181818;stroke-width:1.0;"/><polygon fill="#181818" points="2556.74,467.2469,2566.5632,466.536,2561.1506,464.8917,2562.7949,459.4791,2556.74,467.2469" style="stroke:#181818;stroke-width:1.0;"/><text fill="#000000" font-family="sans-serif" font-size="13" lengthAdjust="spacing" textLength="103" x="2673" y="412.3638">fetchSubjectID()</text></g><!--MD5=[620143eb0680ae936d35cabf25f16147]
link RClasses to SClasses--><g id="link_RClasses_SClasses"><path d="M1618.28,367.3769 C1634.77,376.3569 1656.35,386.4869 1677,391.2969 C1727.33,403.0169 2090.81,392.2669 2142,399.2969 C2171.58,403.3569 2178.02,409.0969 2207,416.2969 C2222.07,420.0369 2226.7,418.2569 2241,424.2969 C2265.33,434.5769 2290.43,450.9369 2308.56,463.9869 " fill="none" id="RClasses-to-SClasses" style="stroke:#181818;stroke-width:1.0;"/><polygon fill="#181818" points="2313.02,467.2269,2308.0779,458.7077,2308.9708,464.2937,2303.3848,465.1865,2313.02,467.2269" style="stroke:#181818;stroke-width:1.0;"/><text fill="#000000" font-family="sans-serif" font-size="13" lengthAdjust="spacing" textLength="78" x="2208" y="412.3638">getClassID()</text></g><!--MD5=[29cd4d5ecd925c23353aa41154f8ad5a]
link RSchedules to SSections--><g id="link_RSchedules_SSections"><path d="M1439.43,367.3169 C1457.71,376.2869 1481.51,386.4169 1504,391.2969 C1576.77,407.0969 1765.35,388.3269 1839,399.2969 C1886.22,406.3269 2009.76,442.9469 2084.32,465.7669 " fill="none" id="RSchedules-to-SSections" style="stroke:#181818;stroke-width:1.0;"/><polygon fill="#181818" points="2089.16,467.2469,2081.733,460.7785,2084.3808,465.7774,2079.3819,468.4253,2089.16,467.2469" style="stroke:#181818;stroke-width:1.0;"/><text fill="#000000" font-family="sans-serif" font-size="13" lengthAdjust="spacing" textLength="102" x="1913" y="412.3638">getSectionInfo()</text></g><!--MD5=[1e591b04eafc46db5670199def62c5dc]
link SSubjects to Registrar--><g id="link_SSubjects_Registrar"><path d="M2573.59,503.2969 C2595.29,510.8969 2621.36,519.8069 2645,527.2969 C2732.6,555.0569 2834.67,584.0669 2899.77,602.1469 " fill="none" id="SSubjects-to-Registrar" style="stroke:#181818;stroke-width:1.0;"/><polygon fill="#181818" points="2904.79,603.5369,2897.1956,597.2659,2899.9738,602.1935,2895.0462,604.9717,2904.79,603.5369" style="stroke:#181818;stroke-width:1.0;"/></g><!--MD5=[7042aa28c79ee0bb1be3f0900c8188fd]
link SClasses to Registrar--><g id="link_SClasses_Registrar"><path d="M2368.64,503.3169 C2386.24,511.6069 2408.37,521.1069 2429,527.2969 C2594.55,576.9469 2797.25,603.0969 2899.8,613.9969 " fill="none" id="SClasses-to-Registrar" style="stroke:#181818;stroke-width:1.0;"/><polygon fill="#181818" points="2904.91,614.5369,2896.3819,609.6103,2899.9379,614.0097,2895.5385,617.5657,2904.91,614.5369" style="stroke:#181818;stroke-width:1.0;"/></g><!--MD5=[29187d1564a23de42cb32bc1bf2faf48]
link SSections to Registrar--><g id="link_SSections_Registrar"><path d="M2178.58,503.4469 C2196.99,511.8869 2220.27,521.4669 2242,527.2969 C2478.63,590.7469 2770.74,611.4069 2899.6,617.7169 " fill="none" id="SSections-to-Registrar" style="stroke:#181818;stroke-width:1.0;"/><polygon fill="#181818" points="2904.87,617.9669,2896.0747,613.535,2899.8759,617.7243,2895.6865,621.5255,2904.87,617.9669" style="stroke:#181818;stroke-width:1.0;"/></g><!--MD5=[e31390089c1cb585306ac8442484ac2b]
@startuml
title End-to-End

skinparam componentStyle rectangle
skinparam packageStyle rectangle

' - - - - - - - - - - - - - - - - - - CLIENT - - - - - - - - - - - - - - - - - -
package "Client (React)" {

  [App.jsx] as App
  [LoginPage.jsx] as LoginPage
  [MainPage.jsx] as MainPage
  [SubjectSearch.jsx] as SubjectSearch
  [ClassSearch.jsx] as ClassSearch
  [ChosenClasses.jsx] as ChosenClasses
  [Timetable.jsx] as Timetable
}

App - -> LoginPage
App - -> MainPage

MainPage - -> SubjectSearch
MainPage - -> ClassSearch
MainPage - -> ChosenClasses
MainPage - -> Timetable

' - - - - - - - - - - - - - - - - - - SERVER - - - - - - - - - - - - - - - - - -
package "Server (Node/Express)" {

  [server.js] as Server

  package "API Routes" {
    [routes/subjects.js] as RSubjects
    [routes/classes.js] as RClasses
    [routes/sections.js] as RSections
    [routes/schedules.js] as RSchedules
  }

  package "DB Layer (SQLite)" {
    [db/initDB.js] as InitDB
    [db/subject.js] as SubjectDB
    [db/class.js] as ClassDB
    [db/section.js] as SectionDB
    [server/sql/database.sqlite] as SQLiteDB <<database>>
  }

  package "Scrapers" {
    [scrapers/subjects.js] as SSubjects
    [scrapers/classes.js] as SClasses
    [scrapers/sections.js] as SSections
  }

  package "Utils" {
    [utils/getSchedules.js] as SchedUtil
  }
}

' - - - - - - - - - - - - - - - - - - EXTERNAL - - - - - - - - - - - - - - - - - -
package "External System" {
  [UCLA Registrar] as Registrar
}

' ================= ARROWS =================

' - - - Client → Server API (from MainPage.jsx fetch calls) - - -
MainPage - -> RSubjects : GET /api/subjects
MainPage - -> RClasses  : GET /api/classes
MainPage - -> RSections : GET /api/sections
MainPage - -> RSchedules: POST /api/schedules

' - - - server.js wiring - - -
Server - -> InitDB      : initDB()
Server - -> RSubjects
Server - -> RClasses
Server - -> RSections
Server - -> RSchedules

' - - - initDB opens the physical database file - - -
InitDB - -> SQLiteDB    : open/create DB file

' - - - Routes → DB modules - - -
RSubjects - -> SubjectDB         : getSubjects(), createSubjectEntry()
RClasses  - -> ClassDB           : getClasses(), createClassEntry()
RClasses  - -> SubjectDB         : subjectExists()
RSections - -> SectionDB         : getSectionAll()
RSections - -> SubjectDB         : subjectExists()
RSections - -> ClassDB           : classExists()
RSchedules - -> SubjectDB        : subjectExists()
RSchedules - -> ClassDB          : classExists(), getClassName()
RSchedules - -> SectionDB        : upsertSectionEntry()
RSchedules - -> SchedUtil        : getSchedules()

' - - - DB modules operate on the SQLite connection - - -
SubjectDB - -> SQLiteDB
ClassDB   - -> SQLiteDB
SectionDB - -> SQLiteDB

' - - - Routes → Scrapers (only where actually used) - - -
RSubjects - -> SSubjects         : fetchSubjectID()
RClasses  - -> SClasses          : getClassID()
RSchedules - -> SSections        : getSectionInfo()

' - - - Scrapers → UCLA Registrar - - -
SSubjects - -> Registrar
SClasses  - -> Registrar
SSections - -> Registrar
@enduml

@startuml
title End-to-End

skinparam componentStyle rectangle
skinparam packageStyle rectangle

package "Client (React)" {

  [App.jsx] as App
  [LoginPage.jsx] as LoginPage
  [MainPage.jsx] as MainPage
  [SubjectSearch.jsx] as SubjectSearch
  [ClassSearch.jsx] as ClassSearch
  [ChosenClasses.jsx] as ChosenClasses
  [Timetable.jsx] as Timetable
}

App - -> LoginPage
App - -> MainPage

MainPage - -> SubjectSearch
MainPage - -> ClassSearch
MainPage - -> ChosenClasses
MainPage - -> Timetable

package "Server (Node/Express)" {

  [server.js] as Server

  package "API Routes" {
    [routes/subjects.js] as RSubjects
    [routes/classes.js] as RClasses
    [routes/sections.js] as RSections
    [routes/schedules.js] as RSchedules
  }

  package "DB Layer (SQLite)" {
    [db/initDB.js] as InitDB
    [db/subject.js] as SubjectDB
    [db/class.js] as ClassDB
    [db/section.js] as SectionDB
    [server/sql/database.sqlite] as SQLiteDB <<database>>
  }

  package "Scrapers" {
    [scrapers/subjects.js] as SSubjects
    [scrapers/classes.js] as SClasses
    [scrapers/sections.js] as SSections
  }

  package "Utils" {
    [utils/getSchedules.js] as SchedUtil
  }
}

package "External System" {
  [UCLA Registrar] as Registrar
}


MainPage - -> RSubjects : GET /api/subjects
MainPage - -> RClasses  : GET /api/classes
MainPage - -> RSections : GET /api/sections
MainPage - -> RSchedules: POST /api/schedules

Server - -> InitDB      : initDB()
Server - -> RSubjects
Server - -> RClasses
Server - -> RSections
Server - -> RSchedules

InitDB - -> SQLiteDB    : open/create DB file

RSubjects - -> SubjectDB         : getSubjects(), createSubjectEntry()
RClasses  - -> ClassDB           : getClasses(), createClassEntry()
RClasses  - -> SubjectDB         : subjectExists()
RSections - -> SectionDB         : getSectionAll()
RSections - -> SubjectDB         : subjectExists()
RSections - -> ClassDB           : classExists()
RSchedules - -> SubjectDB        : subjectExists()
RSchedules - -> ClassDB          : classExists(), getClassName()
RSchedules - -> SectionDB        : upsertSectionEntry()
RSchedules - -> SchedUtil        : getSchedules()

SubjectDB - -> SQLiteDB
ClassDB   - -> SQLiteDB
SectionDB - -> SQLiteDB

RSubjects - -> SSubjects         : fetchSubjectID()
RClasses  - -> SClasses          : getClassID()
RSchedules - -> SSections        : getSectionInfo()

SSubjects - -> Registrar
SClasses  - -> Registrar
SSections - -> Registrar
@enduml

PlantUML version 1.2022.7(Mon Aug 22 17:01:30 UTC 2022)
(GPL source distribution)
Java Runtime: OpenJDK Runtime Environment
JVM: OpenJDK 64-Bit Server VM
Default Encoding: UTF-8
Language: en
Country: null
--></g></svg>