<?xml version="1.0" encoding="UTF-8" standalone="no"?><svg xmlns="http://www.w3.org/2000/svg" xmlns:xlink="http://www.w3.org/1999/xlink" contentStyleType="text/css" height="1612px" preserveAspectRatio="none" style="width:1638px;height:1612px;background:#FFFFFF;" version="1.1" viewBox="0 0 1638 1612" width="1638px" zoomAndPan="magnify"><defs/><g><rect fill="none" height="26.2969" id="_title" style="stroke:none;stroke-width:1.0;" width="310" x="660.25" y="10"/><text fill="#000000" font-family="sans-serif" font-size="14" font-weight="bold" lengthAdjust="spacing" textLength="300" x="665.25" y="27.9951">End-to-End Search and Schedule Flow</text><rect fill="none" height="320.1328" style="stroke:#000000;stroke-width:1.5;" width="1423" x="198.5" y="295.2578"/><rect fill="none" height="320.1328" style="stroke:#000000;stroke-width:1.5;" width="1423" x="198.5" y="789.0547"/><line style="stroke:#181818;stroke-width:0.5;stroke-dasharray:5.0,5.0;" x1="24" x2="24" y1="118.5938" y2="1531.9141"/><line style="stroke:#181818;stroke-width:0.5;stroke-dasharray:5.0,5.0;" x1="259.5" x2="259.5" y1="118.5938" y2="1531.9141"/><line style="stroke:#181818;stroke-width:0.5;stroke-dasharray:5.0,5.0;" x1="513.5" x2="513.5" y1="118.5938" y2="1531.9141"/><line style="stroke:#181818;stroke-width:0.5;stroke-dasharray:5.0,5.0;" x1="740.5" x2="740.5" y1="118.5938" y2="1531.9141"/><line style="stroke:#181818;stroke-width:0.5;stroke-dasharray:5.0,5.0;" x1="979.5" x2="979.5" y1="118.5938" y2="1531.9141"/><line style="stroke:#181818;stroke-width:0.5;stroke-dasharray:5.0,5.0;" x1="1189.5" x2="1189.5" y1="118.5938" y2="1531.9141"/><line style="stroke:#181818;stroke-width:0.5;stroke-dasharray:5.0,5.0;" x1="1290.5" x2="1290.5" y1="118.5938" y2="1531.9141"/><line style="stroke:#181818;stroke-width:0.5;stroke-dasharray:5.0,5.0;" x1="1419.5" x2="1419.5" y1="118.5938" y2="1531.9141"/><line style="stroke:#181818;stroke-width:0.5;stroke-dasharray:5.0,5.0;" x1="1553.5" x2="1553.5" y1="118.5938" y2="1531.9141"/><text fill="#000000" font-family="sans-serif" font-size="14" lengthAdjust="spacing" textLength="32" x="5" y="115.292">User</text><ellipse cx="24" cy="50.7969" fill="#E2E2F0" rx="8" ry="8" style="stroke:#181818;stroke-width:0.5;"/><path d="M24,58.7969 L24,85.7969 M11,66.7969 L37,66.7969 M24,85.7969 L11,100.7969 M24,85.7969 L37,100.7969 " fill="none" style="stroke:#181818;stroke-width:0.5;"/><text fill="#000000" font-family="sans-serif" font-size="14" lengthAdjust="spacing" textLength="32" x="5" y="1543.9092">User</text><ellipse cx="24" cy="1555.7109" fill="#E2E2F0" rx="8" ry="8" style="stroke:#181818;stroke-width:0.5;"/><path d="M24,1563.7109 L24,1590.7109 M11,1571.7109 L37,1571.7109 M24,1590.7109 L11,1605.7109 M24,1590.7109 L37,1605.7109 " fill="none" style="stroke:#181818;stroke-width:0.5;"/><rect fill="#E2E2F0" height="30.2969" rx="2.5" ry="2.5" style="stroke:#181818;stroke-width:0.5;" width="103" x="208.5" y="87.2969"/><text fill="#000000" font-family="sans-serif" font-size="14" lengthAdjust="spacing" textLength="89" x="215.5" y="107.292">MainPage.jsx</text><rect fill="#E2E2F0" height="30.2969" rx="2.5" ry="2.5" style="stroke:#181818;stroke-width:0.5;" width="103" x="208.5" y="1530.9141"/><text fill="#000000" font-family="sans-serif" font-size="14" lengthAdjust="spacing" textLength="89" x="215.5" y="1550.9092">MainPage.jsx</text><rect fill="#E2E2F0" height="30.2969" rx="2.5" ry="2.5" style="stroke:#181818;stroke-width:0.5;" width="223" x="402.5" y="87.2969"/><text fill="#000000" font-family="sans-serif" font-size="14" lengthAdjust="spacing" textLength="209" x="409.5" y="107.292">Subjects Route (/api/subjects)</text><rect fill="#E2E2F0" height="30.2969" rx="2.5" ry="2.5" style="stroke:#181818;stroke-width:0.5;" width="223" x="402.5" y="1530.9141"/><text fill="#000000" font-family="sans-serif" font-size="14" lengthAdjust="spacing" textLength="209" x="409.5" y="1550.9092">Subjects Route (/api/subjects)</text><rect fill="#E2E2F0" height="30.2969" rx="2.5" ry="2.5" style="stroke:#181818;stroke-width:0.5;" width="210" x="635.5" y="87.2969"/><text fill="#000000" font-family="sans-serif" font-size="14" lengthAdjust="spacing" textLength="196" x="642.5" y="107.292">Classes Route (/api/classes)</text><rect fill="#E2E2F0" height="30.2969" rx="2.5" ry="2.5" style="stroke:#181818;stroke-width:0.5;" width="210" x="635.5" y="1530.9141"/><text fill="#000000" font-family="sans-serif" font-size="14" lengthAdjust="spacing" textLength="196" x="642.5" y="1550.9092">Classes Route (/api/classes)</text><rect fill="#E2E2F0" height="30.2969" rx="2.5" ry="2.5" style="stroke:#181818;stroke-width:0.5;" width="249" x="855.5" y="87.2969"/><text fill="#000000" font-family="sans-serif" font-size="14" lengthAdjust="spacing" textLength="235" x="862.5" y="107.292">Schedules Route (/api/schedules)</text><rect fill="#E2E2F0" height="30.2969" rx="2.5" ry="2.5" style="stroke:#181818;stroke-width:0.5;" width="249" x="855.5" y="1530.9141"/><text fill="#000000" font-family="sans-serif" font-size="14" lengthAdjust="spacing" textLength="235" x="862.5" y="1550.9092">Schedules Route (/api/schedules)</text><rect fill="#E2E2F0" height="30.2969" rx="2.5" ry="2.5" style="stroke:#181818;stroke-width:0.5;" width="75" x="1152.5" y="87.2969"/><text fill="#000000" font-family="sans-serif" font-size="14" lengthAdjust="spacing" textLength="61" x="1159.5" y="107.292">DB Layer</text><rect fill="#E2E2F0" height="30.2969" rx="2.5" ry="2.5" style="stroke:#181818;stroke-width:0.5;" width="75" x="1152.5" y="1530.9141"/><text fill="#000000" font-family="sans-serif" font-size="14" lengthAdjust="spacing" textLength="61" x="1159.5" y="1550.9092">DB Layer</text><rect fill="#E2E2F0" height="30.2969" rx="2.5" ry="2.5" style="stroke:#181818;stroke-width:0.5;" width="107" x="1237.5" y="87.2969"/><text fill="#000000" font-family="sans-serif" font-size="14" lengthAdjust="spacing" textLength="93" x="1244.5" y="107.292">Scraper Layer</text><rect fill="#E2E2F0" height="30.2969" rx="2.5" ry="2.5" style="stroke:#181818;stroke-width:0.5;" width="107" x="1237.5" y="1530.9141"/><text fill="#000000" font-family="sans-serif" font-size="14" lengthAdjust="spacing" textLength="93" x="1244.5" y="1550.9092">Scraper Layer</text><rect fill="#E2E2F0" height="30.2969" rx="2.5" ry="2.5" style="stroke:#181818;stroke-width:0.5;" width="131" x="1354.5" y="87.2969"/><text fill="#000000" font-family="sans-serif" font-size="14" lengthAdjust="spacing" textLength="117" x="1361.5" y="107.292">Schedule Engine</text><rect fill="#E2E2F0" height="30.2969" rx="2.5" ry="2.5" style="stroke:#181818;stroke-width:0.5;" width="131" x="1354.5" y="1530.9141"/><text fill="#000000" font-family="sans-serif" font-size="14" lengthAdjust="spacing" textLength="117" x="1361.5" y="1550.9092">Schedule Engine</text><rect fill="#E2E2F0" height="30.2969" rx="2.5" ry="2.5" style="stroke:#181818;stroke-width:0.5;" width="116" x="1495.5" y="87.2969"/><text fill="#000000" font-family="sans-serif" font-size="14" lengthAdjust="spacing" textLength="102" x="1502.5" y="107.292">UCLA Registrar</text><rect fill="#E2E2F0" height="30.2969" rx="2.5" ry="2.5" style="stroke:#181818;stroke-width:0.5;" width="116" x="1495.5" y="1530.9141"/><text fill="#000000" font-family="sans-serif" font-size="14" lengthAdjust="spacing" textLength="102" x="1502.5" y="1550.9092">UCLA Registrar</text><rect fill="#EEEEEE" height="3" style="stroke:#EEEEEE;stroke-width:1.0;" width="1631.5" x="0" y="149.1602"/><line style="stroke:#000000;stroke-width:1.0;" x1="0" x2="1631.5" y1="149.1602" y2="149.1602"/><line style="stroke:#000000;stroke-width:1.0;" x1="0" x2="1631.5" y1="152.1602" y2="152.1602"/><rect fill="#EEEEEE" height="23.1328" style="stroke:#000000;stroke-width:2.0;" width="128" x="751.75" y="138.5938"/><text fill="#000000" font-family="sans-serif" font-size="13" font-weight="bold" lengthAdjust="spacing" textLength="109" x="757.75" y="154.6606">Subject search</text><polygon fill="#181818" points="248,188.8594,258,192.8594,248,196.8594,252,192.8594" style="stroke:#181818;stroke-width:1.0;"/><line style="stroke:#181818;stroke-width:1.0;" x1="24" x2="254" y1="192.8594" y2="192.8594"/><text fill="#000000" font-family="sans-serif" font-size="13" lengthAdjust="spacing" textLength="186" x="31" y="187.7935">type subject and click Search</text><polygon fill="#181818" points="502,217.9922,512,221.9922,502,225.9922,506,221.9922" style="stroke:#181818;stroke-width:1.0;"/><line style="stroke:#181818;stroke-width:1.0;" x1="260" x2="508" y1="221.9922" y2="221.9922"/><text fill="#000000" font-family="sans-serif" font-size="13" lengthAdjust="spacing" textLength="109" x="267" y="216.9263">GET /api/subjects</text><polygon fill="#181818" points="1178,247.125,1188,251.125,1178,255.125,1182,251.125" style="stroke:#181818;stroke-width:1.0;"/><line style="stroke:#181818;stroke-width:1.0;" x1="514" x2="1184" y1="251.125" y2="251.125"/><text fill="#000000" font-family="sans-serif" font-size="13" lengthAdjust="spacing" textLength="86" x="521" y="246.0591">getSubjects()</text><polygon fill="#181818" points="525,276.2578,515,280.2578,525,284.2578,521,280.2578" style="stroke:#181818;stroke-width:1.0;"/><line style="stroke:#181818;stroke-width:1.0;stroke-dasharray:2.0,2.0;" x1="519" x2="1189" y1="280.2578" y2="280.2578"/><text fill="#000000" font-family="sans-serif" font-size="13" lengthAdjust="spacing" textLength="175" x="531" y="275.1919">subject list (may be empty)</text><path d="M198.5,295.2578 L262.5,295.2578 L262.5,302.3906 L252.5,312.3906 L198.5,312.3906 L198.5,295.2578 " fill="#EEEEEE" style="stroke:#000000;stroke-width:1.5;"/><rect fill="none" height="320.1328" style="stroke:#000000;stroke-width:1.5;" width="1423" x="198.5" y="295.2578"/><text fill="#000000" font-family="sans-serif" font-size="13" font-weight="bold" lengthAdjust="spacing" textLength="19" x="213.5" y="308.3247">alt</text><text fill="#000000" font-family="sans-serif" font-size="11" font-weight="bold" lengthAdjust="spacing" textLength="166" x="277.5" y="307.4683">[subjects already cached]</text><polygon fill="#181818" points="271,329.5234,261,333.5234,271,337.5234,267,333.5234" style="stroke:#181818;stroke-width:1.0;"/><line style="stroke:#181818;stroke-width:1.0;stroke-dasharray:2.0,2.0;" x1="265" x2="513" y1="333.5234" y2="333.5234"/><text fill="#000000" font-family="sans-serif" font-size="13" lengthAdjust="spacing" textLength="104" x="277" y="328.4575">JSON subject list</text><line style="stroke:#181818;stroke-width:1.0;" x1="260" x2="302" y1="362.6563" y2="362.6563"/><line style="stroke:#181818;stroke-width:1.0;" x1="302" x2="302" y1="362.6563" y2="375.6563"/><line style="stroke:#181818;stroke-width:1.0;" x1="261" x2="302" y1="375.6563" y2="375.6563"/><polygon fill="#181818" points="271,371.6563,261,375.6563,271,379.6563,267,375.6563" style="stroke:#181818;stroke-width:1.0;"/><text fill="#000000" font-family="sans-serif" font-size="13" lengthAdjust="spacing" textLength="186" x="267" y="357.5903">store subjects and render list</text><line style="stroke:#000000;stroke-width:1.0;stroke-dasharray:2.0,2.0;" x1="198.5" x2="1621.5" y1="384.6563" y2="384.6563"/><text fill="#000000" font-family="sans-serif" font-size="11" font-weight="bold" lengthAdjust="spacing" textLength="117" x="203.5" y="394.8667">[subjects missing]</text><polygon fill="#181818" points="1279,415.5938,1289,419.5938,1279,423.5938,1283,419.5938" style="stroke:#181818;stroke-width:1.0;"/><line style="stroke:#181818;stroke-width:1.0;" x1="514" x2="1285" y1="419.5938" y2="419.5938"/><text fill="#000000" font-family="sans-serif" font-size="13" lengthAdjust="spacing" textLength="141" x="521" y="414.5278">fetchSubjectIDs(term)</text><polygon fill="#181818" points="1541.5,444.7266,1551.5,448.7266,1541.5,452.7266,1545.5,448.7266" style="stroke:#181818;stroke-width:1.0;"/><line style="stroke:#181818;stroke-width:1.0;" x1="1291" x2="1547.5" y1="448.7266" y2="448.7266"/><text fill="#000000" font-family="sans-serif" font-size="13" lengthAdjust="spacing" textLength="152" x="1298" y="443.6606">HTTP request (subjects)</text><polygon fill="#181818" points="1302,473.8594,1292,477.8594,1302,481.8594,1298,477.8594" style="stroke:#181818;stroke-width:1.0;"/><line style="stroke:#181818;stroke-width:1.0;stroke-dasharray:2.0,2.0;" x1="1296" x2="1552.5" y1="477.8594" y2="477.8594"/><text fill="#000000" font-family="sans-serif" font-size="13" lengthAdjust="spacing" textLength="71" x="1308" y="472.7935">HTML/JSON</text><polygon fill="#181818" points="525,502.9922,515,506.9922,525,510.9922,521,506.9922" style="stroke:#181818;stroke-width:1.0;"/><line style="stroke:#181818;stroke-width:1.0;stroke-dasharray:2.0,2.0;" x1="519" x2="1290" y1="506.9922" y2="506.9922"/><text fill="#000000" font-family="sans-serif" font-size="13" lengthAdjust="spacing" textLength="116" x="531" y="501.9263">parsed subject list</text><polygon fill="#181818" points="1178,532.125,1188,536.125,1178,540.125,1182,536.125" style="stroke:#181818;stroke-width:1.0;"/><line style="stroke:#181818;stroke-width:1.0;" x1="514" x2="1184" y1="536.125" y2="536.125"/><text fill="#000000" font-family="sans-serif" font-size="13" lengthAdjust="spacing" textLength="87" x="521" y="531.0591">save subjects</text><polygon fill="#181818" points="271,561.2578,261,565.2578,271,569.2578,267,565.2578" style="stroke:#181818;stroke-width:1.0;"/><line style="stroke:#181818;stroke-width:1.0;stroke-dasharray:2.0,2.0;" x1="265" x2="513" y1="565.2578" y2="565.2578"/><text fill="#000000" font-family="sans-serif" font-size="13" lengthAdjust="spacing" textLength="104" x="277" y="560.1919">JSON subject list</text><line style="stroke:#181818;stroke-width:1.0;" x1="260" x2="302" y1="594.3906" y2="594.3906"/><line style="stroke:#181818;stroke-width:1.0;" x1="302" x2="302" y1="594.3906" y2="607.3906"/><line style="stroke:#181818;stroke-width:1.0;" x1="261" x2="302" y1="607.3906" y2="607.3906"/><polygon fill="#181818" points="271,603.3906,261,607.3906,271,611.3906,267,607.3906" style="stroke:#181818;stroke-width:1.0;"/><text fill="#000000" font-family="sans-serif" font-size="13" lengthAdjust="spacing" textLength="186" x="267" y="589.3247">store subjects and render list</text><rect fill="#EEEEEE" height="3" style="stroke:#EEEEEE;stroke-width:1.0;" width="1631.5" x="0" y="642.957"/><line style="stroke:#000000;stroke-width:1.0;" x1="0" x2="1631.5" y1="642.957" y2="642.957"/><line style="stroke:#000000;stroke-width:1.0;" x1="0" x2="1631.5" y1="645.957" y2="645.957"/><rect fill="#EEEEEE" height="23.1328" style="stroke:#000000;stroke-width:2.0;" width="112" x="759.75" y="632.3906"/><text fill="#000000" font-family="sans-serif" font-size="13" font-weight="bold" lengthAdjust="spacing" textLength="93" x="765.75" y="648.4575">Class search</text><polygon fill="#181818" points="248,682.6563,258,686.6563,248,690.6563,252,686.6563" style="stroke:#181818;stroke-width:1.0;"/><line style="stroke:#181818;stroke-width:1.0;" x1="24" x2="254" y1="686.6563" y2="686.6563"/><text fill="#000000" font-family="sans-serif" font-size="13" lengthAdjust="spacing" textLength="88" x="31" y="681.5903">select subject</text><polygon fill="#181818" points="728.5,711.7891,738.5,715.7891,728.5,719.7891,732.5,715.7891" style="stroke:#181818;stroke-width:1.0;"/><line style="stroke:#181818;stroke-width:1.0;" x1="260" x2="734.5" y1="715.7891" y2="715.7891"/><text fill="#000000" font-family="sans-serif" font-size="13" lengthAdjust="spacing" textLength="179" x="267" y="710.7231">GET /api/classes?subject=...</text><polygon fill="#181818" points="1178,740.9219,1188,744.9219,1178,748.9219,1182,744.9219" style="stroke:#181818;stroke-width:1.0;"/><line style="stroke:#181818;stroke-width:1.0;" x1="740.5" x2="1184" y1="744.9219" y2="744.9219"/><text fill="#000000" font-family="sans-serif" font-size="13" lengthAdjust="spacing" textLength="126" x="747.5" y="739.856">getClasses(subject)</text><polygon fill="#181818" points="751.5,770.0547,741.5,774.0547,751.5,778.0547,747.5,774.0547" style="stroke:#181818;stroke-width:1.0;"/><line style="stroke:#181818;stroke-width:1.0;stroke-dasharray:2.0,2.0;" x1="745.5" x2="1189" y1="774.0547" y2="774.0547"/><text fill="#000000" font-family="sans-serif" font-size="13" lengthAdjust="spacing" textLength="161" x="757.5" y="768.9888">class list (may be empty)</text><path d="M198.5,789.0547 L262.5,789.0547 L262.5,796.1875 L252.5,806.1875 L198.5,806.1875 L198.5,789.0547 " fill="#EEEEEE" style="stroke:#000000;stroke-width:1.5;"/><rect fill="none" height="320.1328" style="stroke:#000000;stroke-width:1.5;" width="1423" x="198.5" y="789.0547"/><text fill="#000000" font-family="sans-serif" font-size="13" font-weight="bold" lengthAdjust="spacing" textLength="19" x="213.5" y="802.1216">alt</text><text fill="#000000" font-family="sans-serif" font-size="11" font-weight="bold" lengthAdjust="spacing" textLength="160" x="277.5" y="801.2651">[classes already cached]</text><polygon fill="#181818" points="271,823.3203,261,827.3203,271,831.3203,267,827.3203" style="stroke:#181818;stroke-width:1.0;"/><line style="stroke:#181818;stroke-width:1.0;stroke-dasharray:2.0,2.0;" x1="265" x2="739.5" y1="827.3203" y2="827.3203"/><text fill="#000000" font-family="sans-serif" font-size="13" lengthAdjust="spacing" textLength="90" x="277" y="822.2544">JSON class list</text><line style="stroke:#181818;stroke-width:1.0;" x1="260" x2="302" y1="856.4531" y2="856.4531"/><line style="stroke:#181818;stroke-width:1.0;" x1="302" x2="302" y1="856.4531" y2="869.4531"/><line style="stroke:#181818;stroke-width:1.0;" x1="261" x2="302" y1="869.4531" y2="869.4531"/><polygon fill="#181818" points="271,865.4531,261,869.4531,271,873.4531,267,869.4531" style="stroke:#181818;stroke-width:1.0;"/><text fill="#000000" font-family="sans-serif" font-size="13" lengthAdjust="spacing" textLength="209" x="267" y="851.3872">store classes and render options</text><line style="stroke:#000000;stroke-width:1.0;stroke-dasharray:2.0,2.0;" x1="198.5" x2="1621.5" y1="878.4531" y2="878.4531"/><text fill="#000000" font-family="sans-serif" font-size="11" font-weight="bold" lengthAdjust="spacing" textLength="111" x="203.5" y="888.6636">[classes missing]</text><polygon fill="#181818" points="1279,909.3906,1289,913.3906,1279,917.3906,1283,913.3906" style="stroke:#181818;stroke-width:1.0;"/><line style="stroke:#181818;stroke-width:1.0;" x1="740.5" x2="1285" y1="913.3906" y2="913.3906"/><text fill="#000000" font-family="sans-serif" font-size="13" lengthAdjust="spacing" textLength="176" x="747.5" y="908.3247">fetchClasses(term, subject)</text><polygon fill="#181818" points="1541.5,938.5234,1551.5,942.5234,1541.5,946.5234,1545.5,942.5234" style="stroke:#181818;stroke-width:1.0;"/><line style="stroke:#181818;stroke-width:1.0;" x1="1291" x2="1547.5" y1="942.5234" y2="942.5234"/><text fill="#000000" font-family="sans-serif" font-size="13" lengthAdjust="spacing" textLength="146" x="1298" y="937.4575">HTTP request (classes)</text><polygon fill="#181818" points="1302,967.6563,1292,971.6563,1302,975.6563,1298,971.6563" style="stroke:#181818;stroke-width:1.0;"/><line style="stroke:#181818;stroke-width:1.0;stroke-dasharray:2.0,2.0;" x1="1296" x2="1552.5" y1="971.6563" y2="971.6563"/><text fill="#000000" font-family="sans-serif" font-size="13" lengthAdjust="spacing" textLength="71" x="1308" y="966.5903">HTML/JSON</text><polygon fill="#181818" points="751.5,996.7891,741.5,1000.7891,751.5,1004.7891,747.5,1000.7891" style="stroke:#181818;stroke-width:1.0;"/><line style="stroke:#181818;stroke-width:1.0;stroke-dasharray:2.0,2.0;" x1="745.5" x2="1290" y1="1000.7891" y2="1000.7891"/><text fill="#000000" font-family="sans-serif" font-size="13" lengthAdjust="spacing" textLength="102" x="757.5" y="995.7231">parsed class list</text><polygon fill="#181818" points="1178,1025.9219,1188,1029.9219,1178,1033.9219,1182,1029.9219" style="stroke:#181818;stroke-width:1.0;"/><line style="stroke:#181818;stroke-width:1.0;" x1="740.5" x2="1184" y1="1029.9219" y2="1029.9219"/><text fill="#000000" font-family="sans-serif" font-size="13" lengthAdjust="spacing" textLength="81" x="747.5" y="1024.856">save classes</text><polygon fill="#181818" points="271,1055.0547,261,1059.0547,271,1063.0547,267,1059.0547" style="stroke:#181818;stroke-width:1.0;"/><line style="stroke:#181818;stroke-width:1.0;stroke-dasharray:2.0,2.0;" x1="265" x2="739.5" y1="1059.0547" y2="1059.0547"/><text fill="#000000" font-family="sans-serif" font-size="13" lengthAdjust="spacing" textLength="90" x="277" y="1053.9888">JSON class list</text><line style="stroke:#181818;stroke-width:1.0;" x1="260" x2="302" y1="1088.1875" y2="1088.1875"/><line style="stroke:#181818;stroke-width:1.0;" x1="302" x2="302" y1="1088.1875" y2="1101.1875"/><line style="stroke:#181818;stroke-width:1.0;" x1="261" x2="302" y1="1101.1875" y2="1101.1875"/><polygon fill="#181818" points="271,1097.1875,261,1101.1875,271,1105.1875,267,1101.1875" style="stroke:#181818;stroke-width:1.0;"/><text fill="#000000" font-family="sans-serif" font-size="13" lengthAdjust="spacing" textLength="209" x="267" y="1083.1216">store classes and render options</text><rect fill="#EEEEEE" height="3" style="stroke:#EEEEEE;stroke-width:1.0;" width="1631.5" x="0" y="1136.7539"/><line style="stroke:#000000;stroke-width:1.0;" x1="0" x2="1631.5" y1="1136.7539" y2="1136.7539"/><line style="stroke:#000000;stroke-width:1.0;" x1="0" x2="1631.5" y1="1139.7539" y2="1139.7539"/><rect fill="#EEEEEE" height="23.1328" style="stroke:#000000;stroke-width:2.0;" width="171" x="730.25" y="1126.1875"/><text fill="#000000" font-family="sans-serif" font-size="13" font-weight="bold" lengthAdjust="spacing" textLength="152" x="736.25" y="1142.2544">Schedule generation</text><polygon fill="#181818" points="248,1176.4531,258,1180.4531,248,1184.4531,252,1180.4531" style="stroke:#181818;stroke-width:1.0;"/><line style="stroke:#181818;stroke-width:1.0;" x1="24" x2="254" y1="1180.4531" y2="1180.4531"/><text fill="#000000" font-family="sans-serif" font-size="13" lengthAdjust="spacing" textLength="212" x="31" y="1175.3872">select classes and click Generate</text><polygon fill="#181818" points="968,1205.5859,978,1209.5859,968,1213.5859,972,1209.5859" style="stroke:#181818;stroke-width:1.0;"/><line style="stroke:#181818;stroke-width:1.0;" x1="260" x2="974" y1="1209.5859" y2="1209.5859"/><text fill="#000000" font-family="sans-serif" font-size="13" lengthAdjust="spacing" textLength="129" x="267" y="1204.52">POST /api/schedules</text><polygon fill="#181818" points="1178,1234.7188,1188,1238.7188,1178,1242.7188,1182,1238.7188" style="stroke:#181818;stroke-width:1.0;"/><line style="stroke:#181818;stroke-width:1.0;" x1="980" x2="1184" y1="1238.7188" y2="1238.7188"/><text fill="#000000" font-family="sans-serif" font-size="13" lengthAdjust="spacing" textLength="186" x="987" y="1233.6528">validate subjects and classes</text><polygon fill="#181818" points="1279,1263.8516,1289,1267.8516,1279,1271.8516,1283,1267.8516" style="stroke:#181818;stroke-width:1.0;"/><line style="stroke:#181818;stroke-width:1.0;" x1="980" x2="1285" y1="1267.8516" y2="1267.8516"/><text fill="#000000" font-family="sans-serif" font-size="13" lengthAdjust="spacing" textLength="156" x="987" y="1262.7856">fetchSections(if needed)</text><polygon fill="#181818" points="1541.5,1292.9844,1551.5,1296.9844,1541.5,1300.9844,1545.5,1296.9844" style="stroke:#181818;stroke-width:1.0;"/><line style="stroke:#181818;stroke-width:1.0;" x1="1291" x2="1547.5" y1="1296.9844" y2="1296.9844"/><text fill="#000000" font-family="sans-serif" font-size="13" lengthAdjust="spacing" textLength="152" x="1298" y="1291.9185">HTTP request (sections)</text><polygon fill="#181818" points="1302,1322.1172,1292,1326.1172,1302,1330.1172,1298,1326.1172" style="stroke:#181818;stroke-width:1.0;"/><line style="stroke:#181818;stroke-width:1.0;stroke-dasharray:2.0,2.0;" x1="1296" x2="1552.5" y1="1326.1172" y2="1326.1172"/><text fill="#000000" font-family="sans-serif" font-size="13" lengthAdjust="spacing" textLength="71" x="1308" y="1321.0513">HTML/JSON</text><polygon fill="#181818" points="991,1351.25,981,1355.25,991,1359.25,987,1355.25" style="stroke:#181818;stroke-width:1.0;"/><line style="stroke:#181818;stroke-width:1.0;stroke-dasharray:2.0,2.0;" x1="985" x2="1290" y1="1355.25" y2="1355.25"/><text fill="#000000" font-family="sans-serif" font-size="13" lengthAdjust="spacing" textLength="127" x="997" y="1350.1841">parsed section data</text><polygon fill="#181818" points="1178,1380.3828,1188,1384.3828,1178,1388.3828,1182,1384.3828" style="stroke:#181818;stroke-width:1.0;"/><line style="stroke:#181818;stroke-width:1.0;" x1="980" x2="1184" y1="1384.3828" y2="1384.3828"/><text fill="#000000" font-family="sans-serif" font-size="13" lengthAdjust="spacing" textLength="98" x="987" y="1379.3169">upsert sections</text><polygon fill="#181818" points="1408,1409.5156,1418,1413.5156,1408,1417.5156,1412,1413.5156" style="stroke:#181818;stroke-width:1.0;"/><line style="stroke:#181818;stroke-width:1.0;" x1="980" x2="1414" y1="1413.5156" y2="1413.5156"/><text fill="#000000" font-family="sans-serif" font-size="13" lengthAdjust="spacing" textLength="175" x="987" y="1408.4497">getSchedules(db, class list)</text><polygon fill="#181818" points="991,1438.6484,981,1442.6484,991,1446.6484,987,1442.6484" style="stroke:#181818;stroke-width:1.0;"/><line style="stroke:#181818;stroke-width:1.0;stroke-dasharray:2.0,2.0;" x1="985" x2="1419" y1="1442.6484" y2="1442.6484"/><text fill="#000000" font-family="sans-serif" font-size="13" lengthAdjust="spacing" textLength="147" x="997" y="1437.5825">schedule combinations</text><polygon fill="#181818" points="271,1467.7813,261,1471.7813,271,1475.7813,267,1471.7813" style="stroke:#181818;stroke-width:1.0;"/><line style="stroke:#181818;stroke-width:1.0;stroke-dasharray:2.0,2.0;" x1="265" x2="979" y1="1471.7813" y2="1471.7813"/><text fill="#000000" font-family="sans-serif" font-size="13" lengthAdjust="spacing" textLength="100" x="277" y="1466.7153">JSON schedules</text><line style="stroke:#181818;stroke-width:1.0;" x1="260" x2="302" y1="1500.9141" y2="1500.9141"/><line style="stroke:#181818;stroke-width:1.0;" x1="302" x2="302" y1="1500.9141" y2="1513.9141"/><line style="stroke:#181818;stroke-width:1.0;" x1="261" x2="302" y1="1513.9141" y2="1513.9141"/><polygon fill="#181818" points="271,1509.9141,261,1513.9141,271,1517.9141,267,1513.9141" style="stroke:#181818;stroke-width:1.0;"/><text fill="#000000" font-family="sans-serif" font-size="13" lengthAdjust="spacing" textLength="240" x="267" y="1495.8481">store schedules and render timetable</text><!--MD5=[36508ce47fd387fdce74ffd4dbb364ae]
@startuml
title End-to-End Search and Schedule Flow

actor User

participant "MainPage.jsx" as Main
participant "Subjects Route (/api/subjects)" as SubAPI
participant "Classes Route (/api/classes)" as ClassAPI
participant "Schedules Route (/api/schedules)" as SchedAPI
participant "DB Layer" as DB
participant "Scraper Layer" as Scrapers
participant "Schedule Engine" as Engine
participant "UCLA Registrar" as Registrar

== Subject search ==

User -> Main : type subject and click Search
Main -> SubAPI : GET /api/subjects

SubAPI -> DB : getSubjects()
DB - -> SubAPI : subject list (may be empty)

alt subjects already cached
  SubAPI - -> Main : JSON subject list
  Main -> Main : store subjects and render list
else subjects missing
  SubAPI -> Scrapers : fetchSubjectIDs(term)
  Scrapers -> Registrar : HTTP request (subjects)
  Registrar - -> Scrapers : HTML/JSON
  Scrapers - -> SubAPI : parsed subject list
  SubAPI -> DB : save subjects
  SubAPI - -> Main : JSON subject list
  Main -> Main : store subjects and render list
end

== Class search ==

User -> Main : select subject
Main -> ClassAPI : GET /api/classes?subject=...

ClassAPI -> DB : getClasses(subject)
DB - -> ClassAPI : class list (may be empty)

alt classes already cached
  ClassAPI - -> Main : JSON class list
  Main -> Main : store classes and render options
else classes missing
  ClassAPI -> Scrapers : fetchClasses(term, subject)
  Scrapers -> Registrar : HTTP request (classes)
  Registrar - -> Scrapers : HTML/JSON
  Scrapers - -> ClassAPI : parsed class list
  ClassAPI -> DB : save classes
  ClassAPI - -> Main : JSON class list
  Main -> Main : store classes and render options
end

== Schedule generation ==

User -> Main : select classes and click Generate
Main -> SchedAPI : POST /api/schedules

SchedAPI -> DB : validate subjects and classes

SchedAPI -> Scrapers : fetchSections(if needed)
Scrapers -> Registrar : HTTP request (sections)
Registrar - -> Scrapers : HTML/JSON
Scrapers - -> SchedAPI : parsed section data
SchedAPI -> DB : upsert sections

SchedAPI -> Engine : getSchedules(db, class list)
Engine - -> SchedAPI : schedule combinations

SchedAPI - -> Main : JSON schedules
Main -> Main : store schedules and render timetable
@enduml

PlantUML version 1.2022.7(Mon Aug 22 17:01:30 UTC 2022)
(GPL source distribution)
Java Runtime: OpenJDK Runtime Environment
JVM: OpenJDK 64-Bit Server VM
Default Encoding: UTF-8
Language: en
Country: null
--></g></svg>